<?xml version="1.0" encoding="UTF-8"?>
<!DOCTYPE svg PUBLIC "-//W3C//DTD SVG 1.1//EN" "http://www.w3.org/Graphics/SVG/1.1/DTD/svg11.dtd">
<svg xmlns="http://www.w3.org/2000/svg" width="128px" height="128px" style="shape-rendering:geometricPrecision; text-rendering:geometricPrecision; image-rendering:optimizeQuality; fill-rule:evenodd; clip-rule:evenodd" xmlns:xlink="http://www.w3.org/1999/xlink">
<g><path style="opacity:0.982" fill="#000000" d="M 127.5,34.5 C 127.5,53.8333 127.5,73.1667 127.5,92.5C 125.691,95.1393 123.358,97.3059 120.5,99C 82.5,99.6667 44.5,99.6667 6.5,99C 3.64238,97.3059 1.30904,95.1393 -0.5,92.5C -0.5,73.1667 -0.5,53.8333 -0.5,34.5C 1.30904,31.8607 3.64238,29.6941 6.5,28C 44.5,27.3333 82.5,27.3333 120.5,28C 123.358,29.6941 125.691,31.8607 127.5,34.5 Z M 11.5,35.5 C 46.1683,35.3333 80.8349,35.5 115.5,36C 117.333,36.5 118.5,37.6667 119,39.5C 119.667,55.5 119.667,71.5 119,87.5C 118.5,89.3333 117.333,90.5 115.5,91C 80.8333,91.6667 46.1667,91.6667 11.5,91C 9.66667,90.5 8.5,89.3333 8,87.5C 7.33333,71.5 7.33333,55.5 8,39.5C 8.68972,37.6498 9.85639,36.3164 11.5,35.5 Z"/></g>
<g><path style="opacity:0.876" fill="#000000" d="M 14.5,41.5 C 16.5273,41.3379 18.5273,41.5045 20.5,42C 22.2071,45.2485 24.0404,48.4151 26,51.5C 27.0987,48.1363 28.5987,44.9696 30.5,42C 37.0771,40.4094 39.2438,42.9094 37,49.5C 34.7366,54.1242 32.57,58.7909 30.5,63.5C 32.57,68.2091 34.7366,72.8758 37,77.5C 39.2438,84.0906 37.0771,86.5906 30.5,85C 28.5987,82.0304 27.0987,78.8637 26,75.5C 24.0404,78.5849 22.2071,81.7515 20.5,85C 14.3333,86.8333 12.1667,84.6667 14,78.5C 16.1667,73.5 18.3333,68.5 20.5,63.5C 18.3333,58.5 16.1667,53.5 14,48.5C 13.2967,46.0709 13.4634,43.7375 14.5,41.5 Z"/></g>
<g><path style="opacity:0.919" fill="#000000" d="M 52.5,41.5 C 71.0359,38.0361 77.7026,45.3694 72.5,63.5C 77.6441,82.1893 70.8108,89.1893 52,84.5C 51.2419,82.2305 51.4086,80.0639 52.5,78C 56.1667,77.6667 59.8333,77.3333 63.5,77C 67.2704,70.972 65.6037,67.6387 58.5,67C 57.1667,64.6667 57.1667,62.3333 58.5,60C 65.6037,59.3613 67.2704,56.028 63.5,50C 59.8333,49.6667 56.1667,49.3333 52.5,49C 51.2215,46.5024 51.2215,44.0024 52.5,41.5 Z"/></g>
<g><path style="opacity:0.893" fill="#000000" d="M 82.5,41.5 C 99.2124,38.7104 105.046,45.3771 100,61.5C 97.0309,66.6336 93.8642,71.6336 90.5,76.5C 93.7848,77.3236 97.1182,77.8236 100.5,78C 101.833,80.3333 101.833,82.6667 100.5,85C 92.9201,85.8132 85.4201,85.6466 78,84.5C 77.3333,82.5 77.3333,80.5 78,78.5C 82,72.5 86,66.5 90,60.5C 92.174,57.4536 92.8407,54.1202 92,50.5C 87.8643,48.9323 85.3643,50.4323 84.5,55C 82.2305,55.7581 80.0639,55.5914 78,54.5C 76.3809,48.9676 77.8809,44.6343 82.5,41.5 Z"/></g>
<g><path style="opacity:0.97" fill="#000000" d="M 106.5,41.5 C 108.792,41.2436 110.959,41.5769 113,42.5C 113.667,56.5 113.667,70.5 113,84.5C 110.667,85.8333 108.333,85.8333 106,84.5C 105.185,70.092 105.352,55.7586 106.5,41.5 Z"/></g>
<g><path style="opacity:0.904" fill="#000000" d="M 38.5,59.5 C 42.5138,59.3345 46.5138,59.5012 50.5,60C 51.5914,62.0639 51.7581,64.2305 51,66.5C 46.9215,67.6295 42.7548,67.7961 38.5,67C 37.2215,64.5024 37.2215,62.0024 38.5,59.5 Z"/></g>
</svg>
