<?xml version="1.0" encoding="UTF-8"?>
<svg xmlns="http://www.w3.org/2000/svg" xmlns:xlink="http://www.w3.org/1999/xlink" width="256px" height="256px" viewBox="0 0 256 256" version="1.1">
<g id="surface1">
<rect x="0" y="0" width="256" height="256" style="fill:rgb(100%,100%,100%);fill-opacity:1;stroke:none;"/>
<path style=" stroke:none;fill-rule:evenodd;fill:rgb(0%,0%,0%);fill-opacity:1;" d="M 207.964844 199.167969 L 207.964844 168.183594 L 195.175781 168.183594 L 195.175781 199.167969 Z M 140.261719 186.300781 L 140.261719 168.652344 L 127.867188 168.652344 L 127.867188 182.144531 C 127.867188 186.066406 127.710938 187.164062 127.476562 188.1875 C 126.613281 191.011719 123.628906 192.261719 120.570312 192.261719 C 116.335938 192.261719 114.375 190.617188 113.589844 188.027344 C 113.355469 187.167969 113.277344 186.226562 113.199219 185.285156 C 113.121094 184.265625 113.199219 183.164062 113.199219 181.988281 L 113.199219 168.652344 L 100.644531 168.652344 L 100.644531 186.382812 C 100.644531 190.386719 101.980469 193.367188 104.175781 195.402344 C 107.941406 199.09375 114.296875 200.191406 120.179688 200.191406 C 127.320312 200.191406 132.808594 199.171875 136.730469 195.328125 C 138.773438 193.363281 140.261719 190.777344 140.261719 186.300781 Z M 79.386719 184.105469 C 78.765625 183.996094 78.136719 183.945312 77.503906 183.949219 L 63.382812 183.949219 C 62.675781 183.949219 61.890625 184.027344 61.5 184.105469 C 61.734375 183.871094 62.207031 183.402344 62.675781 182.773438 L 69.03125 172.257812 C 69.894531 170.847656 70.285156 169.90625 70.441406 169.515625 C 70.597656 169.90625 70.992188 170.847656 71.855469 172.339844 L 78.367188 182.933594 C 78.679688 183.402344 79.152344 183.871094 79.386719 184.105469 Z M 103.078125 199.167969 L 74.835938 156.808594 L 58.992188 156.808594 L 63.148438 161.75 C 63.226562 161.828125 63.382812 161.90625 63.539062 161.984375 C 63.382812 162.066406 63.226562 162.140625 63.148438 162.21875 L 38.515625 199.167969 L 52.792969 199.167969 L 56.636719 192.8125 C 56.792969 192.5 56.871094 192.1875 56.871094 192.03125 C 57.027344 192.03125 57.421875 192.1875 57.8125 192.1875 L 83.308594 192.1875 C 83.699219 192.1875 84.015625 192.109375 84.171875 192.03125 C 84.15625 192.25 84.210938 192.472656 84.328125 192.660156 L 88.328125 199.167969 Z M 191.726562 183.246094 C 191.726562 179.792969 190.3125 175.789062 185.921875 170.21875 L 175.328125 156.804688 L 160.582031 156.804688 L 168.976562 166.21875 C 170.386719 167.789062 172.191406 169.199219 172.191406 169.199219 C 170.152344 168.023438 167.5625 167.554688 165.523438 167.554688 C 160.660156 167.554688 155.714844 168.574219 151.324219 171.007812 C 146.617188 173.59375 143.480469 177.910156 143.480469 183.636719 C 143.480469 188.027344 145.441406 191.402344 147.949219 193.992188 C 153.601562 199.640625 163.875 200.1875 167.640625 200.1875 C 173.210938 200.1875 181.917969 198.933594 186.863281 194.460938 C 189.765625 191.792969 191.726562 188.109375 191.726562 183.246094 Z M 179.488281 183.636719 C 179.488281 186.855469 177.367188 189.285156 174.703125 190.617188 C 172.503906 191.796875 169.914062 192.109375 167.640625 192.109375 C 165.367188 192.109375 162.699219 191.636719 160.503906 190.539062 C 157.835938 189.207031 155.792969 186.617188 155.792969 183.792969 C 155.792969 180.421875 158.382812 177.75 161.445312 176.417969 C 163.328125 175.558594 165.601562 175.242188 167.40625 175.242188 C 169.132812 175.242188 171.644531 175.476562 173.605469 176.261719 C 177.136719 177.75 179.488281 180.574219 179.488281 183.636719 Z M 203.902344 55.8125 C 194.71875 55.796875 185.796875 58.894531 178.601562 64.601562 C 171.402344 58.894531 162.484375 55.796875 153.300781 55.8125 C 144.113281 55.796875 135.195312 58.894531 128 64.601562 C 120.800781 58.894531 111.882812 55.796875 102.699219 55.8125 C 93.511719 55.796875 84.59375 58.894531 77.398438 64.601562 C 70.199219 58.894531 61.28125 55.796875 52.097656 55.8125 C 29.558594 55.8125 11.292969 74.074219 11.292969 96.617188 C 11.292969 119.152344 29.558594 137.421875 52.097656 137.421875 C 61.28125 137.433594 70.199219 134.335938 77.398438 128.628906 C 84.59375 134.335938 93.511719 137.433594 102.699219 137.421875 C 111.882812 137.4375 120.800781 134.335938 128 128.628906 C 135.195312 134.335938 144.113281 137.433594 153.300781 137.421875 C 162.484375 137.433594 171.402344 134.335938 178.601562 128.628906 C 185.796875 134.335938 194.71875 137.433594 203.902344 137.421875 C 226.441406 137.421875 244.707031 119.15625 244.707031 96.617188 C 244.707031 74.078125 226.441406 55.8125 203.902344 55.8125 Z M 70.722656 121.964844 C 65.523438 125.757812 59.027344 128.070312 52.097656 128.070312 C 34.710938 128.070312 20.640625 114.003906 20.640625 96.617188 C 20.640625 79.226562 34.710938 65.15625 52.097656 65.15625 C 59.027344 65.15625 65.519531 67.472656 70.722656 71.269531 C 64.988281 78.472656 61.875 87.410156 61.894531 96.617188 C 61.898438 105.816406 65.007812 114.75 70.722656 121.964844 Z M 77.398438 115.304688 C 73.390625 109.902344 71.230469 103.347656 71.242188 96.617188 C 71.226562 89.882812 73.386719 83.328125 77.398438 77.925781 C 81.410156 83.328125 83.570312 89.886719 83.554688 96.617188 C 83.566406 103.347656 81.410156 109.902344 77.398438 115.304688 Z M 121.324219 121.964844 C 115.921875 125.941406 109.386719 128.078125 102.675781 128.0625 C 95.984375 128.074219 89.460938 125.9375 84.074219 121.964844 C 89.785156 114.75 92.898438 105.820312 92.902344 96.617188 C 92.921875 87.410156 89.808594 78.472656 84.074219 71.269531 C 89.460938 67.292969 95.984375 65.15625 102.675781 65.171875 C 109.65625 65.171875 116.105469 67.429688 121.324219 71.269531 C 115.589844 78.472656 112.476562 87.410156 112.496094 96.617188 C 112.5 105.820312 115.609375 114.75 121.324219 121.964844 Z M 128 115.304688 C 123.988281 109.902344 121.828125 103.347656 121.84375 96.617188 C 121.828125 89.886719 123.984375 83.328125 128 77.925781 C 132.011719 83.328125 134.171875 89.882812 134.15625 96.617188 C 134.167969 103.347656 132.007812 109.902344 128 115.304688 Z M 171.925781 121.964844 C 166.703125 125.808594 160.257812 128.0625 153.277344 128.0625 C 146.300781 128.0625 139.894531 125.804688 134.675781 121.964844 C 140.386719 114.75 143.5 105.820312 143.5 96.617188 C 143.519531 87.410156 140.40625 78.472656 134.675781 71.269531 C 139.894531 67.429688 146.300781 65.171875 153.277344 65.171875 C 160.257812 65.171875 166.703125 67.429688 171.925781 71.269531 C 166.191406 78.472656 163.078125 87.410156 163.097656 96.617188 C 163.101562 105.820312 166.210938 114.75 171.925781 121.964844 Z M 178.601562 115.304688 C 174.59375 109.902344 172.433594 103.347656 172.445312 96.617188 C 172.429688 89.882812 174.589844 83.328125 178.601562 77.925781 C 182.613281 83.328125 184.773438 89.886719 184.757812 96.617188 C 184.769531 103.34375 182.609375 109.898438 178.601562 115.304688 Z M 203.902344 128.070312 C 196.972656 128.070312 190.476562 125.757812 185.277344 121.964844 C 190.992188 114.75 194.101562 105.820312 194.105469 96.617188 C 194.125 87.410156 191.011719 78.472656 185.277344 71.269531 C 190.480469 67.476562 196.972656 65.160156 203.902344 65.160156 C 221.289062 65.160156 235.359375 79.230469 235.359375 96.617188 C 235.359375 114 221.289062 128.070312 203.902344 128.070312 Z M 203.902344 128.070312 "/>
</g>
</svg>
