<?xml version="1.0" encoding="UTF-8"?>
<svg xmlns="http://www.w3.org/2000/svg" xmlns:xlink="http://www.w3.org/1999/xlink" width="px" height="256px" viewBox="0 0 256 256" version="1.1">
<g id="surface1">
<path style=" stroke:none;fill-rule:evenodd;fill:rgb(0%,0%,0%);fill-opacity:1;" d="M 128 0 C 198.5 0 256 57.5 256 128 C 256 198.5 198.5 256 128 256 C 57.5 256 0 198.5 0 128 C 0 57.5 57.5 0 128 0 Z M 128 0 "/>
<path style=" stroke:none;fill-rule:nonzero;fill:rgb(100%,100%,100%);fill-opacity:1;" d="M 53.632812 89.613281 L 23.429688 63.632812 L 34.738281 50.484375 C 37.042969 47.808594 39.195312 45.929688 41.191406 44.832031 C 43.195312 43.738281 45.226562 43.28125 47.285156 43.460938 C 49.335938 43.636719 51.066406 44.316406 52.460938 45.515625 C 53.746094 46.621094 54.613281 48.074219 55.050781 49.871094 C 55.496094 51.65625 55.355469 53.683594 54.648438 55.925781 C 57.007812 54.265625 59.316406 53.429688 61.585938 53.394531 C 63.863281 53.363281 65.878906 54.105469 67.636719 55.617188 C 69.027344 56.800781 70.078125 58.332031 70.6875 60.054688 C 71.304688 61.792969 71.503906 63.457031 71.289062 65.042969 C 71.074219 66.632812 70.460938 68.335938 69.480469 70.160156 C 68.5 71.984375 67.046875 74.015625 65.125 76.25 Z M 40.117188 69.910156 L 46.632812 62.332031 C 48.394531 60.285156 49.542969 58.703125 50.085938 57.609375 C 50.792969 56.171875 51.058594 54.855469 50.867188 53.652344 C 50.675781 52.453125 50.054688 51.398438 49 50.488281 C 48.003906 49.628906 46.878906 49.144531 45.640625 49.046875 C 44.390625 48.949219 43.183594 49.300781 42.015625 50.085938 C 40.84375 50.882812 39.175781 52.539062 37.007812 55.058594 L 30.988281 62.058594 Z M 54.058594 81.902344 L 61.558594 73.183594 C 62.851562 71.683594 63.707031 70.589844 64.132812 69.90625 C 64.886719 68.691406 65.375 67.566406 65.605469 66.515625 C 65.84375 65.472656 65.785156 64.398438 65.457031 63.304688 C 65.109375 62.214844 64.46875 61.253906 63.507812 60.421875 C 62.382812 59.457031 61.117188 58.949219 59.703125 58.898438 C 58.296875 58.855469 56.914062 59.28125 55.550781 60.183594 C 54.207031 61.082031 52.5625 62.648438 50.648438 64.875 L 43.679688 72.976562 Z M 103.851562 44.984375 L 103.851562 10.820312 L 112.859375 10.820312 L 123.550781 35.007812 C 124.539062 37.261719 125.265625 38.945312 125.707031 40.070312 C 126.222656 38.828125 127.023438 36.996094 128.117188 34.589844 L 138.933594 10.820312 L 146.984375 10.820312 L 146.984375 44.984375 L 141.21875 44.984375 L 141.21875 16.386719 L 128.085938 44.984375 L 122.6875 44.984375 L 109.617188 15.902344 L 109.617188 44.984375 Z M 185.558594 64.933594 L 206.460938 36.589844 L 209.316406 40.109375 L 195.15625 58.125 C 193.699219 59.996094 192.1875 61.828125 190.625 63.609375 C 193.992188 61.980469 195.933594 61.046875 196.46875 60.8125 L 218.347656 51.257812 L 221.707031 55.398438 L 211.308594 69.976562 C 208.738281 73.597656 206.15625 76.800781 203.570312 79.585938 C 205.507812 78.558594 207.78125 77.433594 210.378906 76.210938 L 230.6875 66.484375 L 233.488281 69.9375 L 201.242188 84.289062 L 198.558594 80.976562 L 214.308594 59.164062 C 215.625 57.335938 216.441406 56.226562 216.753906 55.832031 C 215.316406 56.542969 214.078125 57.128906 213.027344 57.585938 L 188.394531 68.4375 Z M 185.558594 64.933594 "/>
<path style=" stroke:none;fill-rule:evenodd;fill:rgb(0%,67.45098%,92.54902%);fill-opacity:1;" d="M 203.613281 129.269531 C 203.613281 170.214844 170.214844 203.613281 129.269531 203.613281 L 129.269531 129.269531 Z M 203.613281 129.269531 "/>
<path style=" stroke:none;fill-rule:evenodd;fill:rgb(100%,100%,100%);fill-opacity:1;" d="M 203.613281 126.730469 C 203.613281 85.785156 170.214844 52.386719 129.269531 52.386719 L 129.269531 126.730469 Z M 203.613281 126.730469 "/>
<path style=" stroke:none;fill-rule:evenodd;fill:rgb(0%,67.45098%,92.54902%);fill-opacity:1;" d="M 52.390625 126.730469 C 52.390625 85.785156 85.785156 52.386719 126.734375 52.386719 L 126.734375 126.730469 Z M 52.390625 126.730469 "/>
<path style=" stroke:none;fill-rule:evenodd;fill:rgb(100%,100%,100%);fill-opacity:1;" d="M 52.390625 129.269531 C 52.390625 170.214844 85.785156 203.613281 126.734375 203.613281 L 126.734375 129.269531 Z M 52.390625 129.269531 "/>
</g>
</svg>
