<?xml version="1.0" encoding="UTF-8"?>
<svg xmlns="http://www.w3.org/2000/svg" xmlns:xlink="http://www.w3.org/1999/xlink" width="px" height="256px" viewBox="0 0 383 256" version="1.1">
<g id="surface1">
<path style=" stroke:none;fill-rule:nonzero;fill:rgb(30.980392%,30.980392%,30.980392%);fill-opacity:1;" d="M 66.546875 231.339844 L 50.105469 231.339844 L 50.105469 255.984375 L 38.628906 255.984375 L 38.628906 200.871094 L 50.105469 200.871094 L 50.105469 222.925781 L 66.554688 222.925781 L 66.554688 200.871094 L 78.03125 200.871094 L 78.03125 255.984375 L 66.546875 255.984375 L 66.546875 231.339844 M 367.402344 209.285156 L 383 209.285156 L 383 200.871094 L 340.355469 200.871094 L 340.355469 209.285156 L 355.929688 209.285156 L 355.929688 255.984375 L 367.402344 255.984375 L 367.402344 209.285156 M 279.753906 247.578125 L 279.769531 200.871094 L 268.277344 200.871094 L 268.277344 255.984375 L 301.109375 255.984375 L 301.109375 247.578125 L 279.753906 247.578125 M 146.054688 246.804688 C 146.226562 247.328125 146.679688 247.546875 147.257812 247.546875 C 147.863281 247.546875 148.285156 247.390625 148.449219 246.824219 L 160.363281 200.878906 L 170.503906 200.878906 L 156.949219 251.226562 C 156.167969 254.410156 154.148438 256.003906 151.039062 256.003906 L 140.457031 256.003906 C 137.339844 256.003906 135.140625 254.472656 134.464844 251.152344 L 120.578125 200.871094 L 133.960938 200.871094 L 146.054688 246.804688 M 15.671875 247.554688 C 12.5 247.554688 11.46875 246.773438 11.46875 243.328125 L 11.484375 213.484375 C 11.484375 210.171875 12.25 209.277344 15.6875 209.277344 L 34.238281 209.277344 L 34.238281 200.863281 L 8.601562 200.863281 C 2.730469 200.863281 0.0078125 203.90625 0.0078125 209.472656 L 0 247.367188 C 0 253.507812 3.144531 255.984375 8.574219 255.984375 L 34.238281 255.984375 L 34.238281 247.5625 L 15.671875 247.5625 M 96.398438 231.339844 L 96.398438 243.335938 C 96.398438 246.839844 97.421875 247.5625 100.601562 247.5625 L 121.832031 247.5625 L 121.832031 255.984375 L 93.507812 255.984375 C 87.757812 255.984375 84.929688 253.199219 84.929688 247.367188 L 84.929688 209.480469 C 84.929688 203.835938 87.578125 200.871094 93.515625 200.871094 L 119.445312 200.871094 L 119.445312 209.285156 L 100.609375 209.285156 C 97.121094 209.285156 96.40625 210.300781 96.40625 213.492188 L 96.40625 222.925781 L 119.203125 222.925781 L 119.203125 231.339844 L 96.398438 231.339844 M 190.613281 224.425781 C 188.175781 224.425781 186.816406 225.882812 186.816406 228.261719 C 186.816406 229.464844 187.425781 230.324219 187.90625 231.1875 L 202.390625 255.984375 L 216.59375 255.984375 L 201.421875 232.722656 L 204 232.710938 C 209.3125 232.710938 212.578125 230.269531 212.578125 224.09375 L 212.570312 209.480469 C 212.570312 203.722656 209.859375 200.871094 203.984375 200.871094 L 172.003906 200.871094 L 172.003906 255.976562 L 183.476562 255.976562 L 183.476562 209.285156 L 196.890625 209.285156 C 200.441406 209.285156 201.078125 210.300781 201.078125 213.492188 L 201.109375 220.210938 C 201.109375 223.46875 200.207031 224.425781 196.890625 224.425781 L 190.613281 224.425781 M 227.457031 255.984375 C 222.210938 255.984375 218.875 253.628906 218.875 247.367188 L 218.890625 209.480469 C 218.890625 203.980469 221.421875 200.871094 227.480469 200.871094 L 252.761719 200.871094 C 258.683594 200.871094 261.332031 203.835938 261.332031 209.480469 L 261.347656 247.367188 C 261.347656 253.394531 258.257812 255.984375 252.761719 255.984375 L 227.457031 255.984375 "/>
<path style=" stroke:none;fill-rule:nonzero;fill:rgb(100%,100%,100%);fill-opacity:1;" d="M 245.667969 247.554688 C 248.78125 247.554688 249.878906 246.894531 249.878906 243.328125 L 249.871094 213.484375 C 249.871094 209.796875 248.671875 209.277344 245.667969 209.277344 L 234.566406 209.277344 C 230.75 209.277344 230.363281 210.601562 230.363281 213.484375 L 230.363281 243.328125 C 230.363281 246.636719 231.253906 247.554688 234.566406 247.554688 L 245.667969 247.554688 "/>
<path style=" stroke:none;fill-rule:nonzero;fill:rgb(30.980392%,30.980392%,30.980392%);fill-opacity:1;" d="M 314.808594 231.339844 L 314.804688 243.335938 C 314.804688 246.839844 315.832031 247.5625 319.015625 247.5625 L 340.242188 247.5625 L 340.242188 255.984375 L 311.90625 255.984375 C 306.171875 255.984375 303.324219 253.199219 303.324219 247.367188 L 303.339844 209.480469 C 303.339844 203.835938 305.988281 200.871094 311.929688 200.871094 L 337.855469 200.871094 L 337.855469 209.285156 L 319.015625 209.285156 C 315.515625 209.285156 314.816406 210.300781 314.816406 213.492188 L 314.816406 222.925781 L 337.609375 222.925781 L 337.609375 231.339844 L 314.808594 231.339844 "/>
<path style=" stroke:none;fill-rule:nonzero;fill:rgb(44.705882%,44.705882%,44.705882%);fill-opacity:1;" d="M 250.953125 0 C 255.457031 0 257.933594 2.441406 257.933594 7.058594 L 257.941406 23.085938 C 257.941406 26.878906 259.742188 27.699219 262.480469 27.699219 L 370.230469 27.683594 C 372.886719 27.683594 376.777344 29.273438 376.777344 33.796875 C 376.777344 35.503906 376.273438 36.316406 375.53125 37.761719 L 341.542969 104.339844 C 339.167969 108.742188 335.761719 109.988281 331.046875 109.988281 L 262.480469 110.011719 C 259.320312 110.011719 257.941406 111.34375 257.941406 114.617188 L 257.957031 130.636719 C 257.957031 135.566406 255.15625 137.613281 250.953125 137.613281 L 127.613281 137.613281 C 123.40625 137.613281 120.617188 135.421875 120.617188 130.59375 L 120.621094 114.578125 C 120.621094 111.507812 119.4375 109.96875 116.066406 109.96875 L 6.75 109.980469 C 1.921875 109.980469 0.1875 106.535156 0.1875 103.871094 C 0.1875 102.855469 0.449219 101.863281 0.894531 101.003906 L 35.265625 33.652344 C 36.902344 30.257812 40.054688 27.675781 45.460938 27.675781 L 116.066406 27.65625 C 119.023438 27.65625 120.617188 26.421875 120.617188 23.050781 L 120.621094 7.023438 C 120.628906 2.605469 123.003906 0 127.613281 0 L 250.953125 0 "/>
<path style=" stroke:none;fill-rule:nonzero;fill:rgb(100%,100%,100%);fill-opacity:1;" d="M 231.992188 21.386719 C 235.0625 21.386719 236.585938 22.757812 236.585938 26.03125 L 236.585938 44.511719 C 236.585938 47.683594 238.046875 49.085938 241.222656 49.085938 L 339.347656 49.085938 C 342.472656 49.085938 343.5 51.148438 343.5 52.789062 C 343.5 53.386719 343.351562 53.980469 343.074219 54.511719 L 326.679688 86.648438 C 325.648438 88.515625 323.832031 88.589844 322.542969 88.589844 L 241.214844 88.589844 C 237.851562 88.589844 236.621094 90.117188 236.621094 93.1875 L 236.613281 111.683594 C 236.613281 114.746094 235.261719 116.226562 231.992188 116.226562 L 146.566406 116.226562 C 143.699219 116.226562 141.957031 115.21875 141.957031 111.636719 L 141.949219 93.15625 C 141.949219 89.785156 140.402344 88.574219 137.339844 88.574219 L 37.621094 88.574219 C 35.175781 88.574219 33.480469 87.039062 33.480469 84.894531 C 33.480469 84.261719 33.628906 83.691406 33.90625 83.164062 L 50.292969 51.035156 C 50.917969 49.90625 51.945312 49.101562 54.421875 49.101562 L 137.339844 49.121094 C 140.207031 49.121094 141.980469 47.964844 141.980469 44.480469 L 141.980469 25.984375 C 141.980469 22.710938 143.398438 21.402344 146.566406 21.402344 L 231.992188 21.386719 "/>
<path style=" stroke:none;fill-rule:nonzero;fill:rgb(44.705882%,44.705882%,44.705882%);fill-opacity:1;" d="M 274.597656 133.40625 C 274.597656 130.8125 276.695312 128.710938 279.28125 128.710938 C 281.867188 128.710938 283.964844 130.8125 283.964844 133.40625 C 283.824219 135.898438 281.769531 137.84375 279.28125 137.84375 C 276.792969 137.84375 274.738281 135.898438 274.597656 133.40625 Z M 283.402344 133.40625 C 283.390625 131.132812 281.542969 129.296875 279.273438 129.304688 C 277.003906 129.3125 275.171875 131.164062 275.175781 133.4375 C 275.179688 135.710938 277.019531 137.550781 279.289062 137.550781 C 280.382812 137.550781 281.433594 137.113281 282.203125 136.335938 C 282.976562 135.558594 283.40625 134.503906 283.402344 133.40625 Z M 281.632812 136.03125 L 280.867188 136.03125 L 279.363281 133.617188 L 278.191406 133.617188 L 278.191406 136.03125 L 277.554688 136.03125 L 277.554688 130.796875 L 279.835938 130.796875 C 280.289062 130.796875 280.722656 130.808594 281.113281 131.042969 C 281.511719 131.269531 281.699219 131.75 281.699219 132.171875 C 281.699219 133.210938 280.976562 133.59375 280.039062 133.609375 Z M 279.167969 133.113281 C 279.90625 133.113281 281.046875 133.242188 281.046875 132.171875 C 281.046875 131.359375 280.339844 131.253906 279.671875 131.253906 L 278.191406 131.253906 L 278.191406 133.113281 L 279.167969 133.113281 "/>
<path style=" stroke:none;fill-rule:nonzero;fill:rgb(30.980392%,30.980392%,30.980392%);fill-opacity:1;" d="M 372.761719 248.828125 C 372.761719 246.230469 374.863281 244.125 377.460938 244.125 C 380.050781 244.125 382.121094 246.230469 382.121094 248.828125 C 382.121094 251.421875 380.050781 253.523438 377.460938 253.523438 C 374.867188 253.527344 372.765625 251.425781 372.761719 248.828125 Z M 381.582031 248.828125 C 381.648438 247.308594 380.875 245.875 379.574219 245.09375 C 378.273438 244.316406 376.648438 244.3125 375.34375 245.089844 C 374.042969 245.867188 373.269531 247.300781 373.332031 248.820312 C 373.421875 251.035156 375.242188 252.785156 377.453125 252.785156 C 379.664062 252.789062 381.484375 251.042969 381.582031 248.828125 Z M 379.792969 251.4375 L 379.035156 251.4375 L 377.535156 249.023438 L 376.355469 249.023438 L 376.355469 251.4375 L 375.71875 251.4375 L 375.71875 246.199219 L 378.007812 246.199219 C 378.457031 246.199219 378.894531 246.214844 379.269531 246.449219 C 379.683594 246.660156 379.863281 247.15625 379.863281 247.578125 C 379.863281 248.617188 379.15625 249 378.210938 249.015625 Z M 377.347656 248.511719 C 378.089844 248.511719 379.214844 248.632812 379.214844 247.578125 C 379.214844 246.765625 378.511719 246.660156 377.851562 246.660156 L 376.355469 246.660156 L 376.355469 248.511719 L 377.347656 248.511719 "/>
</g>
</svg>
