<?xml version="1.0" encoding="UTF-8"?>
<svg xmlns="http://www.w3.org/2000/svg" xmlns:xlink="http://www.w3.org/1999/xlink" width="px" height="256px" viewBox="0 0 256 256" version="1.1">
<g id="surface1">
<rect x="0" y="0" width="256" height="256" style="fill:rgb(100%,100%,100%);fill-opacity:1;stroke:none;"/>
<path style=" stroke:none;fill-rule:evenodd;fill:rgb(25.882353%,36.862745%,60%);fill-opacity:1;" d="M 127.769531 174.953125 C 196.355469 174.953125 251.964844 153.960938 251.964844 128 C 251.964844 102.039062 196.355469 80.964844 127.769531 80.964844 C 59.101562 80.964844 3.492188 102.039062 3.492188 128 C 3.492188 153.960938 59.101562 174.953125 127.769531 174.953125 Z M 127.769531 174.953125 "/>
<path style=" stroke:none;fill-rule:evenodd;fill:rgb(100%,100%,100%);fill-opacity:1;" d="M 127.769531 170.144531 C 61.902344 170.144531 8.378906 151.394531 8.378906 128 C 8.378906 104.683594 61.902344 85.691406 127.769531 85.691406 C 193.792969 85.691406 247.234375 104.683594 247.234375 128 C 247.234375 151.394531 193.792969 170.144531 127.769531 170.144531 Z M 127.769531 170.144531 "/>
<path style=" stroke:none;fill-rule:evenodd;fill:rgb(25.882353%,36.862745%,60%);fill-opacity:1;" d="M 127.769531 166.863281 C 191.628906 166.863281 243.46875 149.472656 243.46875 128 C 243.46875 106.605469 191.628906 89.21875 127.769531 89.21875 C 63.828125 89.21875 12.144531 106.605469 12.144531 128 C 12.148438 149.472656 63.828125 166.863281 127.769531 166.863281 Z M 127.769531 166.863281 "/>
<path style=" stroke:none;fill-rule:evenodd;fill:rgb(100%,100%,100%);fill-opacity:1;" d="M 158.058594 135.769531 C 163.503906 130.644531 166.546875 125.273438 174.402344 125.355469 C 179.128906 125.433594 180.328125 129.199219 181.128906 130.804688 L 191.46875 113.335938 L 197.796875 113.335938 L 180.652344 143.703125 C 180.328125 144.34375 179.527344 145.546875 179.609375 146.507812 C 179.773438 148.03125 181.695312 147.628906 180.972656 147.628906 C 184.417969 147.46875 190.746094 140.898438 192.269531 139.296875 C 192.589844 138.894531 193.152344 138.175781 193.46875 138.175781 C 193.792969 138.175781 194.433594 138.496094 194.433594 138.976562 C 194.433594 139.296875 193.710938 140.5 193.152344 141.21875 C 189.945312 145.226562 184.660156 151.394531 178.648438 151.554688 C 175.683594 151.554688 174.5625 150.355469 174.160156 148.03125 C 172.800781 149.230469 168.152344 151.316406 163.425781 151.316406 C 159.496094 151.238281 157.894531 148.914062 157.09375 147.070312 C 156.375 145.546875 156.050781 143.304688 156.613281 141.0625 C 154.449219 142.183594 152.445312 142.34375 149.5625 142.265625 C 146.195312 142.183594 144.109375 140.660156 143.070312 136.734375 C 139.226562 143.785156 139.0625 144.023438 135.136719 151.398438 L 128.328125 151.398438 L 137.0625 136.574219 C 138.183594 134.570312 138.746094 132.96875 139.144531 131.285156 C 139.386719 130.324219 138.664062 129.441406 137.621094 129.363281 C 136.5 129.363281 134.660156 130.484375 132.894531 132.167969 C 132.894531 132.167969 128.410156 136.976562 125.125 141.863281 C 121.996094 146.511719 116.628906 151.796875 110.78125 151.796875 C 106.535156 151.796875 102.6875 149.476562 101.886719 144.988281 C 101.886719 144.988281 101.484375 146.027344 97.71875 148.191406 C 97.398438 148.351562 96.597656 148.832031 96.359375 148.671875 C 95.636719 148.03125 95.238281 147.230469 95.15625 146.667969 C 95.394531 146.75 95.878906 146.347656 97.398438 145.148438 C 100.363281 142.902344 101.003906 141.140625 101.003906 141.140625 C 101.726562 139.617188 103.007812 137.214844 103.890625 135.53125 C 106.292969 130.722656 110.460938 125.835938 117.269531 125.59375 C 118.390625 125.59375 118.710938 126.074219 118.953125 126.476562 C 119.59375 126.957031 119.355469 127.917969 119.355469 127.917969 C 114.546875 128.640625 111.261719 131.445312 109.257812 134.167969 C 108.058594 135.929688 106.773438 138.816406 106.535156 140.898438 C 106.054688 144.503906 107.734375 146.90625 110.21875 147.46875 C 114.867188 148.191406 118.710938 144.824219 121.757812 139.617188 C 122.558594 138.253906 123.121094 134.726562 123.121094 132.804688 C 123.121094 130.882812 122.078125 128.878906 121.277344 128.078125 C 121.277344 126.714844 122.15625 125.832031 123.199219 125.832031 C 123.519531 125.832031 123.839844 125.832031 124.160156 126.152344 C 125.761719 127.757812 126.644531 130.800781 126.644531 133.125 C 126.644531 133.925781 126.644531 134.726562 126.484375 135.53125 C 129.851562 131.445312 134.097656 126.15625 137.382812 125.113281 C 138.023438 124.792969 138.664062 124.792969 139.304688 124.792969 C 145.316406 124.632812 144.511719 130.082031 144.511719 130.082031 C 147.71875 126.398438 149.960938 125.035156 152.925781 125.195312 C 156.132812 125.355469 157.253906 127.597656 157.253906 129.359375 C 157.171875 131.445312 155.652344 133.847656 153.007812 133.925781 C 150.683594 133.925781 149.320312 132.804688 148.601562 130.722656 C 147.078125 131.285156 146.359375 132.324219 146.035156 134.40625 C 145.554688 137.050781 147.558594 139.136719 150.121094 139.136719 C 154.53125 139.136719 156.453125 137.214844 158.058594 135.769531 Z M 162.863281 101.238281 C 162.863281 103.800781 153.890625 108.6875 146.277344 108.6875 C 134.417969 108.6875 122.078125 103 116.390625 101.71875 C 110.222656 100.277344 104.613281 99.074219 100.207031 99.074219 C 84.742188 99.074219 77.847656 105.726562 78.171875 111.8125 C 78.332031 114.296875 80.332031 115.902344 83.296875 115.339844 C 86.503906 114.777344 90.992188 111.734375 92.113281 109.089844 C 92.355469 108.527344 92.996094 108.449219 93.234375 108.609375 C 93.714844 109.007812 93.554688 109.570312 93.554688 109.570312 C 93.15625 112.695312 88.347656 121.347656 80.015625 121.347656 C 75.367188 121.347656 72.242188 117.023438 72.320312 112.773438 C 72.402344 104.84375 80.496094 96.828125 100.445312 96.828125 C 104.210938 96.828125 108.457031 97.148438 113.105469 97.953125 C 118.472656 98.914062 131.855469 101.15625 142.75 101.316406 C 146.757812 101.316406 151.886719 101.476562 156.054688 100.835938 C 160.460938 100.113281 159.5 99.953125 161.261719 99.953125 C 162.863281 99.953125 162.863281 100.597656 162.863281 101.238281 Z M 162.863281 101.238281 "/>
<path style=" stroke:none;fill-rule:evenodd;fill:rgb(25.882353%,36.862745%,60%);fill-opacity:1;" d="M 174.722656 129.121094 C 171.917969 128.800781 168.390625 131.203125 165.507812 134.730469 C 164.066406 136.492188 162.542969 139.859375 162.300781 141.863281 C 161.984375 143.867188 162.542969 145.867188 163.265625 146.429688 C 163.984375 146.988281 167.191406 148.671875 172.160156 143.625 C 174.964844 140.820312 177.6875 136.253906 177.6875 136.253906 L 176.804688 136.011719 C 178.488281 132.886719 178.164062 129.519531 174.722656 129.121094 Z M 174.722656 129.121094 "/>
<path style=" stroke:none;fill-rule:evenodd;fill:rgb(100%,100%,100%);fill-opacity:1;" d="M 116.152344 119.667969 C 116.152344 120.546875 117.351562 121.269531 118.394531 121.351562 C 118.152344 122.230469 118.234375 122.632812 117.832031 122.550781 C 115.429688 122.550781 114.46875 120.226562 114.46875 120.226562 C 111.265625 120.789062 108.140625 121.191406 101.808594 121.832031 C 85.863281 147.632812 80.894531 151.878906 71.121094 151.878906 C 64.148438 151.878906 57.980469 147.3125 57.820312 139.140625 C 57.738281 134.171875 61.746094 128.082031 69.195312 126.238281 C 70.078125 126.238281 70.398438 126.558594 70.398438 127.039062 C 70.398438 127.359375 70.078125 127.761719 69.355469 128.082031 C 67.191406 128.882812 63.425781 133.128906 63.425781 137.054688 C 63.425781 140.019531 65.269531 143.304688 68.394531 144.027344 C 69.277344 144.269531 70.078125 144.1875 70.878906 144.1875 C 78.652344 144.1875 87.386719 135.453125 96.839844 122.152344 C 95.316406 122.230469 88.828125 122.953125 87.222656 124.796875 C 86.503906 125.355469 86.023438 125.035156 85.863281 124.394531 C 85.863281 124.234375 86.105469 123.675781 86.34375 123.351562 C 88.910156 120.46875 96.601562 119.828125 98.441406 119.585938 C 105.65625 108.53125 114.949219 101.636719 116.871094 101.71875 C 117.191406 101.71875 117.914062 102.199219 117.59375 103 C 117.511719 103.160156 116.710938 104.042969 116.390625 104.28125 C 114.789062 105.726562 109.339844 109.25 103.410156 119.265625 C 108.21875 119.027344 113.828125 118.066406 113.828125 118.066406 C 113.828125 118.066406 113.507812 117.023438 113.507812 116.140625 C 113.75 112.695312 115.75 110.613281 118.316406 111.011719 C 119.757812 111.253906 120.71875 112.457031 120.71875 113.738281 C 120.71875 115.101562 119.679688 117.101562 118.636719 118.066406 C 117.914062 118.625 117.109375 119.183594 116.152344 119.667969 Z M 116.152344 119.667969 "/>
<path style=" stroke:none;fill-rule:evenodd;fill:rgb(25.882353%,36.862745%,60%);fill-opacity:1;" d="M 115.75 117.902344 C 115.75 117.902344 116.550781 117.984375 117.75 116.621094 C 118.230469 116.140625 119.035156 114.699219 118.875 113.734375 C 118.792969 113.253906 118.554688 112.695312 117.992188 112.773438 C 116.789062 113.015625 116.066406 113.578125 115.75 114.777344 C 115.347656 116.058594 115.507812 116.941406 115.75 117.902344 Z M 115.75 117.902344 "/>
</g>
</svg>
