<?xml version="1.0" encoding="UTF-8"?>
<svg xmlns="http://www.w3.org/2000/svg" xmlns:xlink="http://www.w3.org/1999/xlink" width="px" height="256px" viewBox="0 0 256 256" version="1.1">
<g id="surface1">
<rect x="0" y="0" width="256" height="256" style="fill:rgb(100%,100%,100%);fill-opacity:1;stroke:none;"/>
<path style=" stroke:none;fill-rule:evenodd;fill:rgb(100%,98.039216%,76.470588%);fill-opacity:1;" d="M 244.707031 128 C 244.707031 161.796875 192.449219 189.191406 128.003906 189.191406 C 63.542969 189.191406 11.292969 161.796875 11.292969 128 C 11.292969 94.203125 63.542969 66.808594 128.003906 66.808594 C 192.449219 66.808594 244.707031 94.203125 244.707031 128 Z M 244.707031 128 "/>
<path style=" stroke:none;fill-rule:evenodd;fill:rgb(16.862745%,38.823529%,32.156863%);fill-opacity:1;" d="M 239.878906 127.957031 C 239.878906 158.992188 189.769531 184.152344 127.960938 184.152344 C 66.152344 184.152344 16.046875 158.992188 16.046875 127.957031 C 16.046875 96.917969 66.152344 71.761719 127.960938 71.761719 C 189.769531 71.761719 239.878906 96.917969 239.878906 127.957031 Z M 127.960938 76.183594 C 68.578125 76.183594 20.433594 99.363281 20.433594 127.957031 C 20.433594 156.546875 68.578125 179.726562 127.960938 179.726562 C 187.34375 179.726562 235.484375 156.546875 235.484375 127.957031 C 235.488281 99.363281 187.34375 76.183594 127.960938 76.183594 Z M 127.960938 76.183594 "/>
<path style=" stroke:none;fill-rule:evenodd;fill:rgb(16.862745%,38.823529%,32.156863%);fill-opacity:1;" d="M 232.707031 127.957031 C 232.707031 155.011719 185.808594 176.945312 127.960938 176.945312 C 70.113281 176.945312 23.21875 155.011719 23.21875 127.957031 C 23.21875 100.902344 70.113281 78.96875 127.960938 78.96875 C 185.808594 78.96875 232.707031 100.902344 232.707031 127.957031 Z M 195.09375 105.019531 L 177.128906 105.019531 L 174.941406 111.277344 L 186.570312 111.277344 L 173.308594 115.867188 L 172.429688 118.40625 L 192.835938 111.714844 Z M 80.554688 116 L 73.238281 116 C 73.238281 116 80.019531 97.921875 80.5625 96.558594 C 81.53125 94.132812 82.109375 94.300781 82.109375 94.300781 L 72 94.300781 C 73.253906 94.898438 72.144531 97.261719 72.144531 97.261719 C 72.144531 97.261719 64.050781 119.804688 63.484375 120.929688 C 62.921875 122.058594 62.496094 122.199219 62.496094 122.199219 L 80.003906 122.199219 L 82.449219 115.523438 C 82.238281 116.160156 80.554688 116 80.554688 116 Z M 111.257812 122.171875 L 119.503906 122.171875 C 119.503906 122.171875 118.9375 121.335938 119.289062 120.421875 C 119.777344 119.148438 124.152344 107.246094 124.152344 107.246094 L 126.054688 122.171875 L 133.519531 122.171875 L 143.308594 95.621094 C 143.308594 95.621094 143.710938 94.375 144.257812 94.375 L 136.320312 94.351562 C 136.320312 94.351562 136.550781 95.269531 136.265625 95.972656 C 135.988281 96.679688 131.476562 108.726562 131.476562 108.726562 L 129.714844 94.351562 L 121.191406 94.351562 C 121.191406 94.351562 121.632812 95.054688 121.351562 95.832031 L 112.316406 120.628906 C 112.316406 120.628906 111.753906 122.171875 111.257812 122.171875 Z M 148.949219 94.359375 C 148.949219 94.359375 149.652344 95.488281 148.738281 98.09375 C 147.820312 100.703125 140.636719 120.074219 140.636719 120.074219 C 140.636719 120.074219 140.070312 121.894531 139.292969 122.25 L 150.566406 122.238281 C 150.566406 122.238281 164.230469 122.742188 168.460938 108.378906 C 168.460938 108.378906 173.8125 94.21875 158.316406 94.363281 L 148.949219 94.363281 Z M 150.144531 115.824219 C 150.144531 115.824219 150.183594 115.8125 151.449219 115.8125 C 153.363281 115.8125 156.914062 115.390625 159.304688 109.578125 C 163.226562 100.027344 157.753906 100.351562 157.753906 100.351562 L 155.640625 100.351562 Z M 49.902344 144.664062 L 67.863281 144.664062 L 70.050781 138.410156 L 58.421875 138.410156 L 71.6875 133.816406 L 72.5625 131.28125 L 52.15625 137.976562 Z M 81.382812 156.203125 C 81.097656 156.203125 81.097656 155.292969 81.097656 155.292969 L 84.402344 146.527344 C 84.402344 146.527344 88.519531 154.601562 88.800781 155.167969 C 89.082031 155.730469 88.9375 156.199219 88.9375 156.199219 L 98.785156 156.199219 C 97.84375 156.199219 96.878906 154.414062 96.878906 154.414062 L 91.976562 145.617188 C 98.832031 145.617188 101.023438 138.824219 101.023438 138.824219 C 104.40625 128.019531 93.027344 128.304688 93.027344 128.304688 L 81.382812 128.304688 C 82.226562 129.242188 81.566406 131.214844 81.566406 131.214844 C 81.566406 131.214844 74.335938 151.890625 73.773438 153.488281 C 73.207031 155.085938 72.175781 156.199219 72.175781 156.199219 Z M 88.363281 134.71875 L 86.453125 140.328125 L 88.238281 140.328125 C 88.238281 140.328125 91.714844 140.636719 92.996094 137.871094 C 92.996094 137.871094 94.496094 134.703125 90.304688 134.703125 C 89.382812 134.703125 88.363281 134.71875 88.363281 134.71875 Z M 183.269531 156.304688 C 182.566406 156.320312 183.054688 154.597656 183.054688 154.597656 L 186.003906 146.628906 C 186.003906 146.628906 189.976562 154.707031 190.257812 155.273438 C 190.539062 155.835938 190.398438 156.304688 190.398438 156.304688 L 200.59375 156.304688 C 199.652344 156.304688 198.621094 154.519531 198.621094 154.519531 L 193.71875 145.722656 C 200.578125 145.722656 202.644531 139.167969 202.644531 139.167969 C 206.242188 127.859375 194.773438 128.40625 194.773438 128.40625 L 183.21875 128.40625 C 184.066406 129.34375 183.410156 131.320312 183.410156 131.320312 C 183.410156 131.320312 175.875 152.074219 175.3125 153.671875 C 174.957031 154.652344 174.394531 155.542969 173.664062 156.289062 Z M 189.984375 140.429688 C 189.984375 140.429688 193.433594 140.691406 194.488281 137.988281 C 195.738281 134.804688 192.628906 134.886719 192.628906 134.886719 L 190.078125 134.886719 L 188.199219 140.429688 Z M 113.203125 156.894531 C 123.367188 156.894531 129.417969 146.925781 129.417969 139.773438 C 129.417969 132.269531 126.332031 127.585938 119.289062 127.585938 C 110.304688 127.585938 104.441406 134.40625 102.929688 142.882812 C 101.539062 150.675781 105.941406 156.894531 113.203125 156.894531 Z M 113.84375 150.300781 C 116.378906 150.773438 119.167969 148.945312 120.621094 143.117188 C 122.828125 134.292969 118.761719 134.222656 118.019531 134.128906 C 115.769531 133.855469 112.765625 136.445312 111.546875 141.847656 C 110.988281 144.3125 110.394531 149.660156 113.84375 150.300781 Z M 131.832031 128.410156 C 131.832031 128.410156 132.527344 128.785156 132.527344 130.566406 L 132.527344 154.710938 C 132.527344 154.710938 132.433594 156.03125 131.933594 156.308594 L 139.484375 156.308594 C 139.484375 156.308594 139.484375 155.742188 140.234375 154.800781 C 140.984375 153.863281 156.671875 132.824219 156.671875 132.824219 C 156.671875 132.824219 160.25 128.410156 161.1875 128.410156 L 150.378906 128.410156 C 150.378906 128.410156 151.226562 128.972656 150.570312 130.003906 C 149.914062 131.039062 140.300781 145.410156 140.300781 145.410156 L 140.425781 130.914062 C 140.425781 130.914062 140.40625 128.589844 141.339844 128.398438 Z M 177.488281 134.988281 L 179.933594 128.402344 L 161.617188 128.402344 C 161.617188 128.402344 162.277344 128.984375 161.429688 131.332031 C 160.582031 133.683594 153.164062 153.683594 153.164062 153.683594 C 153.164062 153.683594 151.851562 156.3125 151.476562 156.3125 L 170.351562 156.3125 L 172.605469 149.644531 C 172.605469 149.644531 172.324219 150.019531 170.539062 150.019531 L 162.554688 150.019531 L 164.246094 145.507812 L 170.445312 145.507812 C 170.445312 145.507812 171.757812 145.417969 172.042969 145.792969 L 174.574219 138.667969 C 174.574219 138.667969 174.390625 139.308594 172.699219 139.308594 L 166.6875 139.308594 L 168.472656 134.335938 L 176.082031 134.335938 C 176.082031 134.335938 177.117188 134.191406 177.488281 134.988281 Z M 82.007812 122.195312 L 91.046875 122.195312 C 91.046875 122.195312 91.019531 121.503906 91.253906 121.050781 C 91.683594 120.238281 92.800781 118.273438 92.800781 118.273438 L 101.898438 118.273438 L 101.914062 120.722656 C 101.914062 120.722656 101.960938 121.566406 101.292969 122.21875 L 110.308594 122.21875 C 110.308594 122.21875 109.640625 121.84375 109.515625 120.734375 L 108.382812 96.222656 C 108.382812 96.222656 108.335938 94.652344 109.082031 94.324219 L 100.136719 94.324219 C 100.136719 94.324219 100.761719 95.097656 99.5625 96.859375 C 98.367188 98.621094 83.085938 121.28125 83.085938 121.28125 C 83.085938 121.28125 82.78125 121.863281 82.007812 122.195312 Z M 101.722656 103.8125 L 96.699219 111.980469 L 101.792969 111.980469 Z M 101.722656 103.8125 "/>
</g>
</svg>
