<?xml version="1.0" encoding="UTF-8"?>
<svg xmlns="http://www.w3.org/2000/svg" xmlns:xlink="http://www.w3.org/1999/xlink" width="px" height="256px" viewBox="0 0 256 256" version="1.1">
<g id="surface1">
<rect x="0" y="0" width="256" height="256" style="fill:rgb(100%,100%,100%);fill-opacity:1;stroke:none;"/>
<path style=" stroke:none;fill-rule:evenodd;fill:rgb(0%,0%,0%);fill-opacity:1;" d="M 11.292969 109.375 L 11.292969 134.667969 C 11.371094 141.753906 16.121094 147.515625 28.890625 147.515625 L 46.730469 147.515625 L 46.730469 140.503906 L 28.890625 140.503906 C 22.976562 140.253906 23.105469 134.597656 23.105469 134.597656 L 23.105469 109.375 Z M 90.246094 124.382812 L 62.992188 124.382812 C 64.238281 116.582031 69.492188 116.386719 69.492188 116.386719 L 90.246094 116.386719 L 90.246094 108.878906 L 69.125 108.878906 C 69.125 108.878906 49.4375 108.757812 49.4375 128.445312 C 49.4375 148.128906 69.125 147.515625 69.125 147.515625 L 90.246094 147.515625 L 90.246094 140.5 L 69.492188 140.5 C 69.492188 140.5 64.074219 140.300781 62.9375 132.136719 L 90.246094 132.136719 Z M 141.597656 147.394531 L 124.246094 127.621094 L 140.367188 109.25 L 126.953125 109.25 L 117.488281 119.917969 L 108.128906 109.25 L 94.347656 109.25 L 110.652344 127.628906 L 93.117188 147.394531 L 106.898438 147.394531 L 117.484375 135.328125 L 128.183594 147.394531 Z M 240.953125 108.480469 L 208.777344 108.480469 C 208.777344 108.480469 196.347656 108.480469 196.347656 119.554688 C 196.347656 130.628906 208.777344 131.242188 212.714844 131.242188 L 226.863281 131.242188 C 226.863281 131.242188 231.664062 131.859375 231.664062 135.179688 C 231.664062 138.503906 228.339844 139.734375 226.988281 139.734375 L 199.179688 139.734375 L 199.179688 147.488281 L 231.789062 147.488281 C 231.789062 147.488281 244.707031 147.734375 244.707031 135.554688 C 244.707031 123.371094 230.925781 123.863281 230.0625 123.863281 L 213.207031 123.863281 C 213.207031 123.863281 208.511719 123.484375 208.777344 119.1875 C 209.023438 115.25 215.546875 115.742188 215.546875 115.742188 L 240.953125 115.742188 Z M 168.191406 147.429688 C 191.722656 147.429688 191.027344 133.359375 191.027344 133.359375 L 191.027344 109.132812 L 178.914062 109.132812 L 178.914062 131.859375 C 178.914062 131.859375 178.570312 140.394531 167.957031 140.394531 C 157.347656 140.394531 157 131.859375 157 131.859375 L 157 109.132812 L 144.886719 109.132812 L 144.886719 133.359375 C 144.886719 133.359375 144.195312 147.429688 167.726562 147.429688 Z M 168.191406 147.429688 "/>
</g>
</svg>
