<?xml version="1.0" encoding="UTF-8"?>
<svg xmlns="http://www.w3.org/2000/svg" xmlns:xlink="http://www.w3.org/1999/xlink" width="px" height="256px" viewBox="0 0 407 256" version="1.1">
<g id="surface1">
<path style=" stroke:none;fill-rule:nonzero;fill:rgb(3.529412%,9.803922%,13.72549%);fill-opacity:1;" d="M 261.148438 235.28125 L 276.292969 235.28125 L 276.292969 238.789062 L 261.148438 238.789062 Z M 9.253906 214 L 7.902344 249.21875 L 7.902344 249.832031 C 7.902344 252.8125 8.777344 253.429688 13.527344 253.765625 L 13.527344 255.398438 C 10.070312 255.128906 8.710938 255.0625 6.816406 255.0625 C 4.914062 255.0625 3.558594 255.128906 0.0351562 255.398438 L 0.0351562 253.765625 C 4.777344 253.429688 5.460938 252.882812 5.59375 249.21875 L 7.019531 215.902344 L 7.019531 215.5 C 7.019531 212.375 6.066406 211.699219 1.394531 211.425781 L 1.394531 209.726562 C 4.03125 209.933594 5.050781 210 6.949219 210 C 9.101562 210.019531 11.253906 209.910156 13.394531 209.667969 L 25.996094 243.996094 L 38.808594 209.667969 C 41.863281 209.933594 43.285156 210 45.320312 210 C 47.007812 210 48.097656 209.933594 50.671875 209.726562 L 50.671875 211.425781 C 46.066406 211.699219 45.042969 212.375 45.042969 215.425781 L 45.042969 215.902344 L 45.789062 249.21875 C 45.863281 252.882812 46.46875 253.421875 51.351562 253.765625 L 51.351562 255.398438 C 47.082031 254.992188 45.453125 254.851562 42.878906 254.851562 C 40.296875 254.851562 38.671875 254.984375 34.402344 255.398438 L 34.402344 253.765625 C 39.007812 253.496094 40.027344 252.746094 40.027344 249.5625 L 40.027344 249.230469 L 39.421875 214.078125 L 28.234375 244.335938 L 27.421875 246.578125 L 26.472656 249.085938 L 25.585938 251.671875 L 24.84375 253.910156 L 23.824219 253.910156 L 23.082031 251.738281 L 22.128906 249.085938 L 21.183594 246.441406 L 20.367188 244.070312 Z M 60.15625 235.917969 C 60.835938 228.113281 63.40625 224.117188 67.746094 224.117188 C 72.15625 224.117188 74.390625 227.914062 74.796875 235.917969 Z M 68.972656 253.691406 C 62.800781 253.691406 60.085938 248.941406 60.023438 238.359375 L 80.226562 238.359375 C 80.085938 227.910156 75.816406 222.34375 67.816406 222.34375 C 59.6875 222.34375 54.601562 228.929688 54.601562 239.378906 C 54.601562 249.828125 59.6875 255.929688 68.429688 255.929688 C 75.074219 255.929688 79.414062 251.789062 80.289062 244.804688 L 77.574219 244.804688 C 76.761719 250.570312 73.78125 253.691406 68.972656 253.691406 Z M 84.257812 224.855469 L 84.257812 223.636719 C 88.121094 223.296875 90.429688 222.890625 93.207031 222.074219 C 93.546875 224.585938 93.679688 225.667969 93.816406 227.707031 L 93.816406 228.457031 C 95.3125 224.585938 98.21875 222.347656 101.746094 222.347656 C 105.132812 222.347656 107.644531 224.585938 107.644531 227.847656 C 107.644531 229.816406 106.492188 231.101562 104.796875 231.101562 C 103.238281 231.101562 102.019531 230.152344 102.019531 228.796875 C 102.019531 228.664062 102.089844 228.398438 102.152344 228.113281 L 102.289062 227.441406 L 102.289062 226.824219 C 102.289062 225.871094 101.472656 225.195312 100.253906 225.195312 C 96.734375 225.195312 94.496094 229.46875 94.496094 236.1875 L 94.496094 250.367188 C 94.496094 253.289062 95.171875 253.832031 99.308594 254.035156 L 99.308594 255.390625 C 95.574219 255.058594 94.152344 254.980469 91.78125 254.980469 C 89.339844 254.980469 87.917969 255.058594 84.191406 255.390625 L 84.191406 254.035156 C 88.324219 253.832031 89.070312 253.289062 89.070312 250.367188 L 89.070312 228.1875 C 89.003906 225.265625 88.660156 224.929688 85.140625 224.859375 Z M 133.578125 221.738281 L 133.578125 232.9375 L 132.082031 232.9375 C 130.863281 227.03125 128.355469 224.179688 124.222656 224.179688 C 119.136719 224.179688 116.15625 229.679688 116.15625 239.382812 C 116.15625 248.878906 118.800781 253.699219 124.015625 253.699219 C 128.21875 253.699219 130.726562 250.714844 131.542969 244.746094 L 134.320312 244.746094 C 133.4375 252.007812 129.574219 255.941406 123.476562 255.941406 C 115.613281 255.941406 110.261719 249.289062 110.261719 239.386719 C 110.261719 229.273438 115.679688 222.355469 123.679688 222.355469 C 126.59375 222.355469 128.425781 223.101562 130.597656 225.207031 L 132.421875 221.746094 L 133.582031 221.746094 L 133.582031 221.738281 Z M 144.710938 235.917969 C 145.386719 228.113281 147.960938 224.117188 152.300781 224.117188 C 156.707031 224.117188 158.941406 227.914062 159.34375 235.917969 Z M 153.519531 253.691406 C 147.351562 253.691406 144.644531 248.941406 144.574219 238.359375 L 164.773438 238.359375 C 164.636719 227.910156 160.363281 222.34375 152.371094 222.34375 C 144.230469 222.34375 139.144531 228.929688 139.144531 239.378906 C 139.144531 249.828125 144.230469 255.929688 152.980469 255.929688 C 159.621094 255.929688 163.960938 251.789062 164.839844 244.804688 L 162.128906 244.804688 C 161.316406 250.570312 158.332031 253.691406 153.519531 253.691406 Z M 183.542969 254.105469 C 178.664062 254.105469 176.089844 249.011719 176.089844 239.316406 C 176.089844 229.480469 178.460938 224.660156 183.34375 224.660156 C 188.363281 224.660156 190.9375 229.816406 190.9375 239.796875 C 190.9375 249.21875 188.425781 254.105469 183.542969 254.105469 Z M 196.289062 248.332031 L 196.289062 209.160156 C 192.898438 210.070312 189.851562 210.605469 186.058594 211.015625 L 186.058594 212.171875 C 190.328125 212.171875 190.871094 212.644531 190.871094 216.171875 L 190.871094 228.042969 C 188.363281 223.976562 186.394531 222.75 182.734375 222.75 C 175.480469 222.75 170.394531 229.601562 170.394531 239.371094 C 170.394531 249.144531 175.542969 255.992188 182.9375 255.992188 C 186.800781 255.992188 189.445312 254.226562 191.339844 250.429688 C 191.609375 253.007812 191.609375 253.28125 192.292969 255.855469 C 195.066406 254.972656 196.222656 254.699219 200.222656 254.226562 L 201.238281 254.09375 L 201.238281 252.941406 C 196.695312 252.804688 196.289062 252.472656 196.289062 248.332031 Z M 209.367188 235.917969 C 210.046875 228.113281 212.621094 224.117188 216.960938 224.117188 C 221.367188 224.117188 223.597656 227.914062 224.003906 235.917969 Z M 218.179688 253.691406 C 212.007812 253.691406 209.300781 248.941406 209.230469 238.359375 L 229.429688 238.359375 C 229.292969 227.910156 225.023438 222.34375 217.027344 222.34375 C 208.890625 222.34375 203.808594 228.929688 203.808594 239.378906 C 203.808594 249.828125 208.890625 255.929688 217.636719 255.929688 C 224.28125 255.929688 228.617188 251.789062 229.496094 244.804688 L 226.78125 244.804688 C 225.976562 250.570312 222.988281 253.691406 218.179688 253.691406 Z M 235.1875 256 L 235.1875 244.667969 L 236.679688 244.601562 C 237.894531 250.777344 240.746094 253.765625 245.492188 253.765625 C 249.488281 253.765625 252.472656 251.117188 252.472656 247.664062 C 252.472656 245.355469 251.1875 243.796875 247.859375 242.300781 L 245.285156 241.144531 L 242.167969 239.722656 C 237.214844 237.417969 235.65625 235.515625 235.65625 231.578125 C 235.65625 226.214844 239.855469 222.558594 245.828125 222.558594 C 248.46875 222.558594 250.441406 223.167969 252.742188 224.722656 L 253.890625 221.941406 L 255.109375 221.941406 L 255.109375 232.457031 L 253.550781 232.457031 C 252.933594 227.027344 250.703125 224.453125 246.433594 224.453125 C 242.84375 224.453125 240.054688 226.898438 240.054688 230.085938 C 240.054688 232.796875 241.074219 233.683594 247.242188 236.398438 L 250.09375 237.621094 C 255.238281 239.851562 257.074219 242.03125 257.074219 246.035156 C 257.074219 251.734375 252.53125 255.800781 246.167969 255.800781 C 243.046875 255.800781 240.605469 254.984375 238.03125 252.953125 L 236.394531 256 L 235.183594 256 Z M 294.773438 232.589844 C 298.363281 232.589844 300.398438 233.203125 301.960938 234.761719 C 303.519531 236.328125 304.40625 239.242188 304.40625 242.496094 C 304.40625 249.28125 301.011719 253.082031 294.980469 253.082031 L 292.539062 253.082031 C 288.945312 253.082031 288.335938 252.535156 288.335938 249.550781 L 288.335938 232.585938 Z M 288.332031 212.03125 L 294.09375 212.03125 C 299.789062 212.03125 302.296875 214.816406 302.296875 221.125 C 302.296875 224.246094 301.550781 226.488281 300.0625 228.246094 C 298.570312 229.949219 296.742188 230.484375 292.949219 230.484375 L 288.335938 230.484375 L 288.335938 212.027344 L 288.332031 212.027344 Z M 308.328125 220.988281 C 308.328125 217.460938 306.839844 214.34375 304.261719 212.367188 C 301.960938 210.675781 299.320312 209.929688 294.90625 209.929688 L 277.078125 209.929688 L 277.078125 211.625 C 281.964844 211.898438 282.636719 212.441406 282.636719 216.105469 L 282.636719 249.011719 C 282.636719 252.675781 282.089844 253.144531 277.078125 253.558594 L 277.078125 255.191406 L 294.230469 255.191406 C 299.242188 255.191406 301.957031 254.574219 304.808594 252.8125 C 308.195312 250.640625 310.429688 246.5 310.429688 242.234375 C 310.429688 238.5625 308.871094 235.242188 306.226562 233.214844 C 304.808594 232.128906 303.3125 231.507812 300.871094 231.039062 C 305.757812 229.199219 308.328125 225.738281 308.328125 220.988281 Z M 321.496094 235.917969 C 322.175781 228.113281 324.75 224.117188 329.09375 224.117188 C 333.496094 224.117188 335.734375 227.914062 336.136719 235.917969 Z M 330.3125 253.691406 C 324.144531 253.691406 321.425781 248.941406 321.363281 238.359375 L 341.566406 238.359375 C 341.429688 227.910156 337.15625 222.34375 329.15625 222.34375 C 321.023438 222.34375 315.9375 228.929688 315.9375 239.378906 C 315.9375 249.828125 321.023438 255.929688 329.765625 255.929688 C 336.40625 255.929688 340.746094 251.789062 341.628906 244.804688 L 338.914062 244.804688 C 338.105469 250.570312 335.125 253.691406 330.3125 253.691406 Z M 345.152344 225.125 L 345.152344 223.976562 C 349.082031 223.429688 351.386719 222.890625 354.09375 221.9375 C 354.4375 223.507812 354.644531 225.265625 354.773438 227.84375 C 357.21875 224.175781 359.992188 222.554688 363.929688 222.554688 C 367.996094 222.554688 371.519531 224.648438 372.878906 227.976562 C 373.558594 229.609375 373.898438 231.503906 373.898438 234.078125 L 373.898438 250.363281 C 373.898438 253.285156 374.574219 253.828125 378.707031 254.027344 L 378.707031 255.386719 C 375.113281 255.042969 373.761719 254.980469 371.320312 254.980469 C 368.808594 254.980469 367.453125 255.042969 363.925781 255.386719 L 363.925781 254.027344 C 367.585938 253.898438 368.46875 253.214844 368.46875 250.503906 L 368.46875 233.878906 C 368.46875 227.976562 366.707031 225.597656 362.371094 225.597656 C 357.757812 225.597656 355.320312 228.519531 355.320312 234.078125 L 355.320312 250.503906 C 355.320312 253.214844 356.207031 253.898438 359.734375 254.027344 L 359.734375 255.386719 C 356.207031 255.042969 354.851562 254.980469 352.410156 254.980469 C 350.035156 254.980469 348.609375 255.042969 345.085938 255.386719 L 345.085938 254.027344 C 349.214844 253.828125 349.898438 253.285156 349.898438 250.363281 L 349.898438 228.386719 C 349.828125 225.597656 349.421875 225.195312 346.035156 225.195312 C 345.828125 225.195312 345.492188 225.125 345.152344 225.125 Z M 381.339844 255.191406 L 399.710938 224.925781 L 391.371094 224.925781 C 386.96875 224.925781 385.878906 225.871094 383.441406 231.980469 L 382.089844 231.980469 L 383.648438 223.160156 L 406.96875 223.160156 L 388.527344 253.421875 L 396.457031 253.421875 C 401.070312 253.421875 402.964844 251.59375 405 245.417969 L 406.421875 245.417969 L 404.664062 255.191406 Z M 381.339844 255.191406 "/>
<path style=" stroke:none;fill-rule:nonzero;fill:rgb(51.372549%,51.372549%,51.372549%);fill-opacity:1;" d="M 286.429688 146.574219 C 295.460938 131.542969 300.222656 114.328125 300.195312 96.789062 C 300.195312 43.332031 256.902344 0 203.496094 0 C 150.09375 0 106.800781 43.335938 106.800781 96.789062 C 106.773438 114.328125 111.535156 131.542969 120.570312 146.574219 L 120.21875 146.859375 L 120.636719 146.695312 C 137.5625 174.785156 168.335938 193.578125 203.496094 193.578125 C 238.660156 193.578125 269.429688 174.785156 286.355469 146.695312 L 286.773438 146.859375 Z M 288.316406 96.789062 C 288.332031 111.609375 284.449219 126.175781 277.058594 139.019531 L 217.242188 90.796875 L 204.972656 11.933594 C 251.128906 12.722656 288.316406 50.398438 288.316406 96.789062 Z M 118.6875 96.789062 C 118.6875 50.398438 155.871094 12.722656 202.03125 11.933594 L 189.761719 90.796875 L 129.941406 139.019531 C 122.554688 126.175781 118.671875 111.609375 118.6875 96.789062 Z M 203.5 181.679688 C 173.40625 181.679688 146.988281 165.976562 131.9375 142.320312 L 203.5 114.609375 L 275.066406 142.324219 C 260.011719 165.976562 233.601562 181.679688 203.5 181.679688 Z M 203.5 181.679688 "/>
</g>
</svg>
