<?xml version="1.0" encoding="UTF-8"?>
<svg xmlns="http://www.w3.org/2000/svg" xmlns:xlink="http://www.w3.org/1999/xlink" width="px" height="256px" viewBox="0 0 608 256" version="1.1">
<g id="surface1">
<path style=" stroke:none;fill-rule:nonzero;fill:rgb(0%,0%,0%);fill-opacity:1;" d="M 416.316406 64.097656 C 393.195312 24.550781 350.398438 0 304.335938 0 C 258.277344 0 215.476562 24.550781 192.355469 64.097656 L 0.00390625 64.097656 L 1.695312 66.472656 C 2.289062 67.308594 62.441406 151.0625 157.15625 212.585938 L 157.535156 212.820312 L 207.636719 212.820312 C 232.265625 240.257812 267.449219 256 304.347656 256 C 341.246094 256 376.4375 240.257812 401.066406 212.820312 L 450.484375 212.820312 L 450.863281 212.585938 C 545.578125 151.0625 605.710938 67.300781 606.316406 66.472656 L 608.003906 64.097656 Z M 416.316406 64.097656 "/>
<path style=" stroke:none;fill-rule:nonzero;fill:rgb(100%,100%,100%);fill-opacity:1;" d="M 586.6875 86.503906 L 425.066406 86.503906 C 427.578125 93.65625 429.4375 101.105469 430.625 108.769531 L 434.882812 108.769531 C 433.789062 103.050781 432.300781 97.414062 430.417969 91.902344 C 430.417969 91.902344 566.953125 88.691406 586.390625 86.875 C 574.582031 100.980469 562.1875 114.585938 549.242188 127.652344 L 432.242188 127.652344 L 432.257812 127.996094 C 432.257812 135.5 431.46875 142.792969 430.203125 149.929688 L 436.300781 149.929688 C 437.046875 144.511719 437.59375 139.023438 437.59375 133.402344 L 437.585938 133.058594 C 437.585938 133.058594 531.816406 130 548.765625 128.128906 C 534.4375 142.605469 519.449219 156.40625 503.847656 169.496094 L 425.066406 169.496094 C 422.34375 177.238281 418.867188 184.695312 414.691406 191.757812 L 422.890625 191.757812 C 425.738281 186.324219 428.363281 180.757812 430.417969 174.890625 C 430.417969 174.890625 488.667969 172.050781 503.066406 170.140625 C 486.027344 184.410156 468.164062 197.660156 449.566406 209.824219 L 399.753906 209.824219 L 399.304688 210.316406 C 375.179688 237.46875 340.621094 253 304.332031 253 C 268.042969 253 233.484375 237.46875 209.359375 210.316406 L 208.910156 209.824219 L 158.414062 209.824219 C 139.8125 197.652344 121.9375 184.394531 104.890625 170.125 C 119.863281 172.011719 183.332031 174.890625 183.332031 174.890625 C 186.113281 180.839844 190.101562 186.398438 193.6875 191.757812 L 193.972656 191.757812 C 189.792969 184.695312 186.316406 177.238281 183.589844 169.496094 L 104.144531 169.496094 C 88.539062 156.410156 73.550781 142.605469 59.226562 128.128906 C 76.542969 130.027344 174.753906 133.292969 174.753906 133.402344 C 174.753906 138.710938 176.726562 143.910156 178.328125 149.019531 C 177.089844 142.078125 176.445312 135.046875 176.40625 127.996094 L 176.421875 127.652344 L 58.765625 127.652344 C 45.734375 114.488281 33.257812 100.78125 21.363281 86.578125 L 179.996094 91.902344 C 179.136719 97.246094 178.660156 102.96875 177.996094 108.769531 L 178.046875 108.769531 C 179.234375 101.105469 181.085938 93.65625 183.601562 86.503906 L 21.3125 86.503906 C 15.996094 80.175781 10.855469 73.703125 5.890625 67.09375 L 194.019531 67.09375 L 194.449219 66.347656 C 216.921875 27.277344 259.03125 3.003906 304.328125 3.003906 C 349.625 3.003906 391.734375 27.277344 414.214844 66.347656 L 414.644531 67.09375 L 602.109375 67.09375 C 597.152344 73.707031 592.007812 80.179688 586.6875 86.503906 Z M 586.6875 86.503906 "/>
<path style=" stroke:none;fill-rule:nonzero;fill:rgb(0%,0%,0%);fill-opacity:1;" d="M 304.335938 17.695312 C 242.738281 17.695312 192.796875 67.074219 192.796875 128.003906 C 192.796875 188.917969 242.738281 238.3125 304.335938 238.3125 C 365.9375 238.3125 415.886719 188.917969 415.886719 128.003906 C 415.886719 67.074219 365.9375 17.695312 304.335938 17.695312 Z M 304.335938 17.695312 "/>
<path style=" stroke:none;fill-rule:nonzero;fill:rgb(100%,100%,100%);fill-opacity:1;" d="M 304.335938 231.558594 C 246.5 231.558594 199.613281 185.191406 199.613281 127.996094 C 199.613281 70.796875 246.5 24.433594 304.335938 24.433594 C 362.171875 24.433594 409.050781 70.796875 409.050781 127.996094 C 409.050781 185.191406 362.171875 231.558594 304.335938 231.558594 Z M 304.335938 231.558594 "/>
<path style=" stroke:none;fill-rule:nonzero;fill:rgb(0%,0%,0%);fill-opacity:1;" d="M 402.925781 128.003906 C 402.925781 181.847656 358.785156 225.496094 304.335938 225.496094 C 249.886719 225.496094 205.75 181.847656 205.75 128.003906 C 205.75 74.164062 249.886719 30.515625 304.335938 30.515625 C 358.785156 30.515625 402.925781 74.164062 402.925781 128.003906 Z M 402.925781 128.003906 "/>
<path style=" stroke:none;fill-rule:nonzero;fill:rgb(100%,100%,100%);fill-opacity:1;" d="M 375.636719 101.375 L 388.824219 101.375 L 388.824219 156.296875 L 375.636719 156.296875 Z M 290.855469 101.375 L 304.039062 101.375 L 304.039062 156.296875 L 290.855469 156.296875 Z M 352.265625 101.375 L 352.265625 134.6875 L 328.148438 101.375 L 315.71875 101.375 L 315.71875 156.296875 L 328.148438 156.296875 L 328.148438 122.984375 L 352.265625 156.296875 L 364.707031 156.296875 L 364.707031 101.375 Z M 262.769531 101.375 L 248.289062 135.640625 L 233.808594 101.375 L 218.753906 101.375 L 218.753906 156.296875 L 231.195312 156.296875 L 231.195312 125.1875 L 244.066406 156.1875 L 244.113281 156.296875 L 251.960938 156.296875 L 252.015625 156.199219 L 266.136719 122.191406 L 266.136719 156.296875 L 278.566406 156.296875 L 278.566406 101.375 Z M 262.769531 101.375 "/>
</g>
</svg>
