<?xml version="1.0" encoding="UTF-8"?>
<svg xmlns="http://www.w3.org/2000/svg" xmlns:xlink="http://www.w3.org/1999/xlink" width="px" height="256px" viewBox="0 0 256 256" version="1.1">
<g id="surface1">
<rect x="0" y="0" width="256" height="256" style="fill:rgb(100%,100%,100%);fill-opacity:1;stroke:none;"/>
<path style=" stroke:none;fill-rule:evenodd;fill:rgb(0%,0%,0%);fill-opacity:1;" d="M 25.921875 116.113281 L 25.921875 146.195312 L 35.070312 146.195312 L 35.070312 126.300781 L 46.144531 146.195312 L 60.105469 146.195312 L 60.105469 116.113281 L 52.402344 116.113281 L 52.402344 137.460938 L 41.328125 116.113281 Z M 66.847656 146.195312 L 77.441406 146.195312 L 77.441406 116.113281 L 66.847656 116.113281 Z M 175.667969 116.113281 L 163.632812 116.113281 L 150.152344 146.195312 L 159.78125 146.195312 L 162.1875 140.859375 L 177.59375 140.859375 L 180.484375 146.195312 L 190.117188 146.195312 Z M 165.558594 133.097656 L 169.890625 124.359375 L 174.226562 133.097656 Z M 192.523438 116.113281 L 192.523438 146.195312 L 201.671875 146.195312 L 201.671875 125.816406 L 213.226562 146.195312 L 227.675781 146.195312 L 227.675781 116.113281 L 218.523438 116.113281 L 218.523438 136.976562 L 208.410156 116.113281 Z M 83.699219 138.917969 L 83.699219 146.195312 L 109.703125 146.195312 C 115.480469 143.769531 115 137.460938 115 137.460938 L 115 136.007812 C 115 130.183594 109.21875 128.242188 109.21875 128.242188 L 92.851562 128.242188 L 92.851562 123.875 L 112.589844 123.875 L 112.589844 116.113281 L 90.921875 116.113281 C 82.738281 118.050781 83.21875 125.816406 83.21875 125.816406 L 83.21875 127.273438 C 84.183594 134.550781 89.960938 135.035156 89.960938 135.035156 L 106.332031 135.035156 L 106.332031 138.917969 Z M 118.371094 138.917969 L 118.371094 146.195312 L 144.371094 146.195312 C 150.152344 143.769531 149.667969 137.460938 149.667969 137.460938 L 149.667969 136.007812 C 149.667969 130.183594 143.886719 128.242188 143.886719 128.242188 L 127.519531 128.242188 L 127.519531 123.875 L 147.261719 123.875 L 147.261719 116.113281 L 125.59375 116.113281 C 117.40625 118.050781 117.886719 125.816406 117.886719 125.816406 L 117.886719 127.273438 C 118.851562 134.550781 124.628906 135.035156 124.628906 135.035156 L 141 135.035156 L 141 138.917969 Z M 118.371094 138.917969 "/>
<path style=" stroke:none;fill-rule:nonzero;fill:rgb(0%,0%,0%);fill-opacity:1;" d="M 232.96875 158.015625 C 235.082031 158.015625 237.101562 157.140625 238.546875 155.597656 C 239.96875 154.09375 240.847656 151.992188 240.847656 149.59375 L 240.847656 114.65625 C 240.847656 112.199219 239.933594 109.953125 238.457031 108.320312 C 237.035156 106.738281 235.089844 105.75 232.96875 105.75 L 23.03125 105.75 C 20.910156 105.75 18.964844 106.738281 17.539062 108.320312 C 16.066406 109.949219 15.152344 112.199219 15.152344 114.65625 L 15.152344 149.59375 C 15.152344 151.992188 16.03125 154.09375 17.453125 155.597656 C 18.898438 157.140625 20.917969 158.015625 23.03125 158.015625 Z M 241.09375 158.042969 C 238.988281 160.285156 236.046875 161.554688 232.96875 161.550781 L 198.21875 161.550781 C 192.496094 174.96875 182.628906 186.066406 170.253906 193.839844 C 157.703125 201.722656 142.558594 206.191406 126.554688 206.191406 C 110.527344 206.191406 95.699219 201.726562 83.367188 193.980469 C 70.871094 186.132812 60.933594 174.910156 54.90625 161.554688 L 23.03125 161.554688 C 19.953125 161.558594 17.011719 160.289062 14.90625 158.042969 C 12.894531 155.914062 11.648438 152.960938 11.648438 149.59375 L 11.648438 114.65625 C 11.648438 111.277344 12.910156 108.179688 14.941406 105.929688 C 17.003906 103.640625 19.863281 102.210938 23.03125 102.210938 L 51.703125 102.210938 C 57.980469 86.636719 68.328125 73.519531 81.363281 64.304688 C 94.367188 55.117188 110.042969 49.808594 127.039062 49.808594 C 143.9375 49.808594 159.742188 55.089844 172.871094 64.367188 C 185.8125 73.515625 196.152344 86.539062 202.378906 102.210938 L 232.96875 102.210938 C 236.136719 102.210938 238.996094 103.640625 241.058594 105.929688 C 243.089844 108.179688 244.351562 111.277344 244.351562 114.65625 L 244.351562 149.59375 C 244.351562 152.957031 243.105469 155.914062 241.09375 158.042969 Z M 55.492188 102.210938 L 198.59375 102.210938 C 192.574219 87.773438 182.894531 75.765625 170.875 67.269531 C 158.316406 58.398438 143.203125 53.347656 127.039062 53.347656 C 110.789062 53.347656 95.796875 58.421875 83.363281 67.207031 C 71.246094 75.769531 61.554688 87.859375 55.492188 102.210938 Z M 168.394531 190.824219 C 179.597656 183.789062 188.632812 173.917969 194.164062 162.035156 L 59.011719 162.035156 C 64.8125 173.882812 73.917969 183.863281 85.226562 190.964844 C 97.027344 198.378906 111.21875 202.652344 126.554688 202.652344 C 141.878906 202.652344 156.375 198.371094 168.394531 190.824219 Z M 168.394531 190.824219 "/>
</g>
</svg>
