<?xml version="1.0" encoding="UTF-8"?>
<svg xmlns="http://www.w3.org/2000/svg" xmlns:xlink="http://www.w3.org/1999/xlink" width="px" height="256px" viewBox="0 0 256 256" version="1.1">
<g id="surface1">
<rect x="0" y="0" width="256" height="256" style="fill:rgb(100%,100%,100%);fill-opacity:1;stroke:none;"/>
<path style=" stroke:none;fill-rule:evenodd;fill:rgb(14.509804%,32.54902%,59.607843%);fill-opacity:1;" d="M 212.234375 198.144531 C 212.234375 208.863281 205.816406 215.652344 195.398438 215.910156 C 185.117188 216.164062 178.664062 210.117188 178.425781 199.9375 C 178.183594 189.808594 184.90625 182.820312 195.101562 182.570312 C 205.289062 182.320312 212.234375 188.625 212.234375 198.144531 Z M 186.785156 200.035156 C 186.964844 207.730469 190.21875 212.070312 195.570312 212.0625 C 202.59375 212.054688 204.0625 203.933594 203.953125 199.335938 C 203.773438 191.835938 201.089844 186.523438 195.410156 186.535156 C 189.730469 186.546875 186.582031 191.644531 186.785156 200.035156 Z M 142.078125 188.324219 L 143.292969 184.589844 C 139.964844 183.066406 135.796875 182.546875 132.179688 182.546875 C 117.28125 182.546875 112.382812 192.566406 112.382812 199.332031 C 112.382812 208.085938 118.214844 215.910156 130.644531 215.910156 C 139.21875 215.910156 144.121094 212.992188 144.121094 212.992188 L 144.121094 199.5625 L 135.898438 199.5625 L 135.898438 211.214844 C 135.898438 211.214844 135.789062 211.316406 135.605469 211.398438 C 134.558594 211.867188 132.46875 212.125 130.328125 211.820312 C 124.863281 211.050781 121.242188 206.109375 121.242188 199.449219 C 121.242188 191.578125 128.199219 187.308594 132.855469 187.121094 C 137.515625 186.925781 140.597656 187.90625 142.078125 188.324219 Z M 241.859375 188.023438 L 231.519531 188.023438 L 231.519531 214.496094 L 223.144531 214.496094 L 223.144531 188.023438 L 213.085938 188.023438 L 213.085938 183.726562 L 241.859375 183.726562 Z M 14.140625 183.726562 L 30.496094 183.726562 C 36.707031 183.726562 38.121094 183.945312 40.355469 184.90625 C 43.1875 186.089844 45.269531 189.691406 45.269531 192.660156 C 45.269531 201.546875 38.871094 203.15625 31.222656 203.15625 L 22.933594 203.15625 L 22.933594 214.496094 L 14.140625 214.496094 Z M 22.90625 199.660156 L 29.164062 199.660156 C 33.433594 199.660156 36.371094 196.988281 36.371094 193.597656 C 36.371094 190.238281 33.386719 187.527344 29.554688 187.527344 L 22.910156 187.558594 L 22.910156 199.660156 Z M 93.125 215.910156 L 93.175781 215.910156 C 98.761719 215.910156 102.058594 214.429688 105.023438 211.460938 C 106.796875 209.679688 107.898438 207.523438 107.898438 202.484375 L 107.898438 183.722656 L 99.722656 183.722656 C 99.722656 183.722656 99.714844 200.082031 99.714844 204.824219 C 99.714844 209.023438 96.976562 211.722656 93.175781 211.722656 L 93.148438 211.722656 C 89.335938 211.722656 86.484375 209.167969 86.484375 204.480469 C 86.484375 199.796875 86.476562 183.722656 86.476562 183.722656 L 78.300781 183.722656 L 78.300781 202.304688 C 78.300781 207.511719 79.574219 209.910156 81.347656 211.6875 C 84.3125 214.65625 87.5625 215.90625 93.148438 215.90625 L 93.125 215.90625 Z M 57.238281 209.539062 L 72.597656 209.539062 L 72.597656 214.496094 L 48.910156 214.496094 L 48.910156 183.726562 L 72.597656 183.726562 L 72.597656 188.089844 L 57.238281 188.089844 L 57.238281 195.808594 L 69.648438 195.808594 L 69.648438 199.542969 L 57.238281 199.542969 Z M 159.53125 209.65625 L 174.894531 209.65625 L 174.894531 214.496094 L 151.203125 214.496094 L 151.203125 183.726562 L 174.894531 183.726562 L 174.894531 188.203125 L 159.53125 188.203125 L 159.53125 195.921875 L 171.941406 195.921875 L 171.941406 199.65625 L 159.53125 199.65625 Z M 194.355469 164.367188 L 194.355469 31.144531 L 61.136719 31.144531 L 61.136719 164.367188 Z M 194.355469 164.367188 "/>
<path style=" stroke:none;fill-rule:evenodd;fill:rgb(65.098039%,65.882353%,66.666667%);fill-opacity:1;" d="M 141.800781 128.636719 C 145.480469 131.058594 147.128906 132.152344 150.746094 133.984375 C 153.757812 132.753906 157.261719 133.925781 156.71875 136.394531 C 156.359375 138.027344 156.058594 141.515625 154.148438 141.386719 C 152.035156 141.21875 149.703125 140.210938 146.875 141.863281 C 144.96875 142.925781 142.351562 147.808594 140.664062 148.199219 C 141.90625 149.855469 142.875 151.160156 142.875 151.160156 C 147.65625 151.160156 151.253906 153.613281 153.125 154.765625 C 160.9375 151.476562 164.003906 152.859375 171.738281 154.246094 C 172.699219 154.421875 173.207031 152.945312 172.90625 151.75 C 172.386719 149.710938 171.097656 146.8125 171.011719 145.523438 L 171.003906 128.464844 C 169.863281 127.128906 168.285156 124.683594 168.277344 124.683594 C 164.996094 125.515625 163.46875 125.328125 162.863281 123.445312 C 162.210938 121.417969 160.625 117.230469 159.386719 114.59375 C 159.386719 114.59375 166.410156 113.769531 170.609375 108.722656 C 172.179688 106.835938 173.859375 103.699219 173.824219 99.929688 C 173.746094 91.476562 167.023438 79.035156 165.335938 74.742188 C 164.324219 72.160156 161.390625 65.359375 164.234375 62.578125 C 165.347656 61.488281 167.644531 60.890625 169.28125 64.304688 C 170.078125 65.953125 170.425781 65.238281 170.269531 65.539062 C 168.230469 68.691406 167.015625 70.378906 167.867188 73.257812 C 169.058594 77.277344 174.261719 81.109375 175.925781 82.160156 C 175.925781 82.160156 178.703125 83.96875 179.261719 83.546875 C 180.589844 82.535156 177.335938 77.207031 177.402344 76.128906 C 177.464844 75.140625 177.511719 74.246094 177.832031 73.207031 C 178.195312 72.042969 178.753906 70.328125 179.078125 68.558594 C 180.117188 62.9375 175.460938 55.140625 170.042969 54.402344 C 168.597656 54.207031 163.996094 55.949219 159.96875 61.953125 C 159.207031 63.089844 158.109375 66.015625 158.226562 68.257812 C 156.253906 63.550781 153.832031 58.199219 151.1875 54.242188 C 150.335938 52.375 145.851562 47.167969 144.5 46.808594 C 140.785156 45.816406 137.523438 46.429688 134.015625 45.882812 C 132.570312 46.03125 122.246094 48.273438 121.898438 48.757812 C 121.898438 48.757812 119.386719 52.6875 119.386719 52.707031 C 116.824219 53.335938 113.523438 54.433594 113.136719 54.933594 C 112 56.316406 110.914062 56.898438 111.28125 57.464844 C 111.769531 59.070312 112.855469 59.382812 112.855469 59.382812 L 118.496094 59.390625 C 119.964844 56.917969 124.457031 57.289062 127.082031 59.445312 C 128.015625 60.210938 127.085938 59.570312 127.511719 60.746094 C 125.988281 61.375 123.546875 62.148438 121.796875 61.710938 C 119.394531 61.371094 114.546875 61.042969 113.214844 61.511719 L 114.183594 63.09375 C 115.652344 63.71875 118.769531 63.992188 119.925781 64.011719 C 121.796875 64.054688 124.585938 64.242188 127.023438 64.054688 C 125.804688 65.792969 125.074219 68.097656 123.425781 68.097656 L 116.878906 68.097656 C 116.976562 68.527344 115.492188 68.429688 115.640625 68.839844 C 115.640625 68.839844 116.601562 69.984375 117.132812 70.71875 L 121.046875 70.917969 C 122.835938 71.023438 122.71875 72.722656 122.066406 73.683594 C 120.96875 75.296875 117.898438 78.308594 115.253906 78.558594 C 108.625 72.785156 103.660156 68.578125 97.152344 63.410156 C 96.054688 62.53125 94.835938 62.113281 93.027344 61.796875 C 91.21875 61.484375 88.183594 61.210938 85.523438 61.210938 C 84.382812 61.210938 78.460938 60.574219 78.050781 60.953125 L 79.164062 62.609375 C 79.3125 63.492188 79.097656 63.9375 78.925781 65.589844 C 78.871094 66.25 78.601562 67.410156 78.601562 67.410156 C 78.601562 67.410156 79.457031 68.574219 80.144531 69.605469 C 83.03125 68.484375 85.441406 70.640625 85.441406 70.640625 L 83.320312 72.164062 L 85.355469 75.003906 C 88.8125 76.300781 91.21875 76.425781 96.234375 75.414062 L 105.890625 87.191406 L 88.242188 88.09375 C 85.800781 88.175781 83.929688 90.078125 83.34375 91.691406 C 82.734375 93.28125 79.496094 93.910156 79.351562 95.1875 L 81.429688 98.210938 L 82.636719 97.851562 C 83.355469 98.710938 84.53125 100.433594 86.339844 101.265625 C 86.972656 100.117188 88.664062 98.710938 90.679688 99.125 C 91.203125 99.789062 92.472656 101.667969 92.472656 101.667969 C 95.480469 102.148438 99.082031 99.851562 99.714844 96.921875 L 114.292969 96.71875 L 122.347656 106.171875 C 116.722656 113.757812 110.917969 122.636719 105.425781 131.355469 C 107.824219 133.53125 106.996094 137.976562 103.054688 138.390625 C 100.367188 138.675781 97.402344 136.195312 93.78125 137.011719 C 90.171875 137.796875 85.929688 140.167969 83.777344 143.289062 C 84.160156 143.847656 85.835938 146.167969 85.835938 146.167969 C 88.925781 146.929688 92.636719 148.652344 95.238281 152.050781 C 99.726562 149.097656 109.882812 151.789062 113.664062 153.046875 C 114.703125 153.472656 115.550781 152.695312 115.472656 151.238281 C 115.386719 149.601562 113.75 147.277344 114.65625 144.609375 C 116.269531 139.839844 128.277344 129.957031 134.859375 123.734375 C 134.859375 123.730469 139.460938 127.097656 141.800781 128.636719 Z M 164.558594 86.824219 C 166.628906 92.050781 167.378906 94.289062 168.046875 97.835938 C 168.578125 100.671875 168.289062 103.246094 167.1875 104.730469 C 165.890625 106.464844 162.460938 109.210938 155.738281 107.628906 L 155.742188 107.613281 C 153.652344 104.558594 149.496094 98.710938 147.613281 95.804688 C 148.957031 90.90625 149.570312 89.714844 150.625 85.050781 L 153.273438 86.398438 C 154.515625 82.921875 157.539062 74.28125 158.128906 71.140625 C 158.128906 71.140625 159.066406 72.855469 159.753906 74.875 C 161.265625 79.339844 163.039062 82.984375 164.558594 86.824219 Z M 128.949219 51.789062 C 127.664062 52.355469 125.320312 53.175781 123.402344 53.824219 C 122.972656 52.777344 122.933594 51.9375 123.117188 50.699219 C 124.699219 50.453125 127.070312 50.132812 128.601562 50.132812 C 129.578125 50.132812 129.847656 51.371094 128.949219 51.789062 Z M 128.949219 51.789062 "/>
<path style=" stroke:none;fill-rule:evenodd;fill:rgb(100%,100%,100%);fill-opacity:1;" d="M 174.492188 73.105469 C 174.570312 72.117188 174.851562 71.21875 175.175781 70.179688 C 175.546875 68.988281 176.222656 67.300781 176.425781 65.519531 C 177.066406 59.898438 173.804688 54.71875 168.375 53.980469 C 166.925781 53.785156 161.171875 52.878906 157.136719 58.894531 C 156.375 60.035156 155.273438 62.96875 155.390625 65.214844 C 153.414062 60.496094 150.988281 55.132812 148.335938 51.167969 C 147.765625 50.390625 144.789062 46.890625 143.972656 46.65625 C 140.265625 45.671875 135.839844 44.644531 132.3125 44.097656 C 130.867188 44.246094 120.039062 48.105469 119.695312 48.585938 C 119.695312 48.585938 118.449219 49.886719 118.449219 49.90625 C 115.882812 50.539062 110.582031 51.355469 110.195312 51.859375 C 109.054688 53.242188 109.847656 54.542969 110.214844 55.109375 C 110.335938 55.320312 111.195312 58.320312 112.722656 58.320312 L 116.820312 58.332031 C 118.816406 54.976562 124.65625 54.8125 126.285156 59.320312 C 124.75 59.953125 123.535156 60.667969 120.519531 60.285156 C 116.863281 59.765625 113.207031 61.007812 113.226562 61.515625 C 113.253906 62.316406 117.527344 62.582031 118.632812 62.601562 C 120.515625 62.644531 123.339844 62.832031 125.796875 62.644531 C 124.574219 64.386719 122.160156 65.054688 120.507812 65.054688 L 113.945312 65.054688 C 114.234375 66.398438 114.796875 67.667969 115.597656 68.789062 L 118.289062 68.789062 C 120.082031 68.894531 119.527344 69.554688 119.144531 70.65625 C 118.453125 72.644531 117.195312 75.648438 115.222656 77.398438 C 108.574219 71.609375 99.667969 64.359375 93.375 59.757812 C 91.539062 58.414062 83.980469 57.472656 80.195312 58.90625 C 79.109375 59.320312 78.421875 60.203125 78.042969 60.925781 L 79.925781 61.464844 C 76.46875 63.53125 78.609375 67.410156 78.609375 67.410156 C 80.285156 67.054688 82.914062 66.214844 85.664062 70.28125 L 83.332031 72.132812 C 84.515625 72.972656 91.613281 73.792969 93.644531 72.539062 C 93.644531 72.539062 102.03125 83.71875 102.929688 84.195312 C 103.414062 84.453125 99.515625 84.667969 95.164062 84.984375 C 91.425781 85.042969 87.925781 85.105469 85.179688 85.164062 C 82.710938 85.214844 80.914062 87.089844 80.324219 88.703125 C 79.710938 90.296875 79.0625 93.683594 79.347656 95.152344 L 80.710938 94.710938 C 82.445312 97.582031 82.527344 98.230469 84.769531 99.070312 C 86.023438 95.898438 90.738281 96.238281 90.738281 96.238281 L 90.6875 99.128906 C 97.230469 99.085938 97.859375 94.351562 97.859375 94.351562 L 110.628906 94.152344 L 118.707031 103.9375 C 112.078125 110.828125 107.457031 119.351562 102.460938 128.464844 C 104.867188 130.648438 104.035156 135.101562 100.082031 135.515625 C 97.386719 135.800781 94.414062 133.316406 90.785156 134.132812 C 86.359375 135.097656 87.277344 138.644531 83.792969 143.28125 C 87.277344 144.140625 90.917969 146.410156 93.3125 149.171875 C 98.097656 146.140625 107.789062 148.480469 111.578125 149.742188 C 112.421875 150.015625 112.769531 148.488281 112.222656 147.203125 C 111.777344 146.152344 111.132812 144.519531 112.269531 141.855469 C 113.292969 139.460938 124.6875 127.882812 132.757812 120.527344 C 132.804688 120.484375 135.585938 122.59375 138.386719 124.652344 C 142.765625 127.867188 148.585938 131.117188 148.585938 131.117188 L 149.753906 131.027344 C 155.050781 129.890625 155.957031 134.566406 155.367188 136.136719 C 154.777344 137.710938 153.214844 138.65625 151.300781 138.523438 C 149.179688 138.355469 146.839844 137.34375 144.007812 139.003906 C 141.15625 140.597656 142.375 145.925781 140.644531 148.167969 C 145.433594 148.167969 149.285156 150.625 151.164062 151.777344 C 158.992188 148.484375 161.277344 149.488281 169.207031 150.835938 C 169.761719 150.9375 170.195312 149.402344 169.585938 148.519531 C 169.019531 147.691406 168.132812 145.484375 168.292969 143.660156 L 168.292969 124.691406 C 163.234375 125.363281 160.910156 123.265625 160.035156 120.539062 C 159.382812 118.503906 157.464844 114.351562 156.222656 111.707031 C 156.222656 111.707031 164.023438 111.507812 168.230469 106.453125 C 169.804688 104.558594 171.15625 100.726562 170.429688 97.125 C 169.425781 92.132812 168.777344 90.460938 167.023438 86.097656 C 165.566406 82.464844 162.863281 75.828125 161.746094 72.046875 C 160.167969 66.703125 159.933594 64.320312 161.609375 61.367188 C 162.625 59.570312 164.832031 57.882812 167.347656 59.113281 C 168.992188 59.921875 168.632812 60.386719 168.476562 60.6875 C 166.429688 63.84375 165.605469 67.933594 166.460938 70.820312 C 167.65625 74.847656 171.464844 78.101562 173.128906 79.15625 C 173.128906 79.15625 175.914062 80.96875 176.476562 80.542969 C 177.808594 79.53125 174.363281 74.6875 174.492188 73.105469 Z M 128.167969 50.503906 C 126.886719 51.070312 124.546875 51.886719 122.636719 52.53125 C 122.210938 51.488281 122.167969 50.648438 122.351562 49.414062 C 123.957031 49.164062 126.296875 48.851562 127.824219 48.851562 C 128.800781 48.851562 129.066406 50.085938 128.167969 50.503906 Z M 161.402344 84.460938 C 163.476562 89.695312 164.222656 91.941406 164.890625 95.5 C 165.425781 98.339844 165.140625 100.921875 164.03125 102.40625 C 162.734375 104.148438 159.292969 106.898438 152.554688 105.3125 L 152.5625 105.300781 C 150.460938 102.238281 146.730469 96.703125 144.839844 93.789062 C 146.1875 88.878906 146.800781 87.683594 147.859375 83.007812 C 147.859375 83.007812 150.800781 84.621094 150.9375 84.058594 C 151.425781 81.984375 154.789062 72.214844 155.378906 69.066406 C 155.378906 69.066406 155.894531 70.457031 156.578125 72.484375 C 158.09375 76.953125 159.875 80.609375 161.402344 84.460938 Z M 161.402344 84.460938 "/>
<path style=" stroke:none;fill-rule:evenodd;fill:rgb(90.196078%,90.196078%,90.588235%);fill-opacity:1;" d="M 161.40625 84.488281 C 163.480469 89.722656 164.226562 91.960938 164.894531 95.519531 C 165.421875 98.3125 165.148438 100.890625 164.035156 102.386719 C 162.738281 104.125 159.300781 106.886719 152.570312 105.300781 L 152.574219 105.3125 C 150.476562 102.25 146.746094 96.71875 144.859375 93.808594 C 146.203125 88.90625 146.816406 87.710938 147.875 83.035156 C 147.875 83.035156 150.816406 84.652344 150.949219 84.085938 C 151.441406 82.011719 154.796875 72.25 155.390625 69.105469 C 155.390625 69.105469 155.902344 70.5 156.589844 72.523438 C 158.101562 76.988281 159.882812 80.640625 161.40625 84.488281 Z M 137.898438 64.136719 C 137.898438 77.96875 131.378906 88.179688 130.539062 100.507812 C 130 108.398438 130.53125 113.292969 132.808594 120.535156 C 132.808594 120.535156 135.589844 122.589844 138.386719 124.644531 C 142.761719 127.859375 148.515625 131.199219 148.515625 131.199219 L 150 131.058594 C 154.996094 129.910156 155.875 134.644531 155.285156 136.214844 C 154.699219 137.785156 153.210938 138.605469 151.300781 138.472656 C 149.183594 138.304688 146.84375 137.296875 144.011719 138.953125 C 141.164062 140.542969 142.359375 145.929688 140.625 148.171875 C 145.410156 148.171875 149.289062 150.652344 151.164062 151.804688 C 158.984375 148.515625 161.339844 149.566406 169.261719 150.910156 C 169.808594 151.011719 170.210938 149.425781 169.589844 148.371094 C 169.082031 147.507812 168.167969 145.402344 168.296875 143.699219 L 168.277344 124.65625 C 163.226562 125.328125 160.902344 123.230469 160.027344 120.507812 C 159.375 118.472656 157.523438 114.386719 156.28125 111.742188 C 156.28125 111.742188 164.070312 111.546875 168.277344 106.492188 C 169.851562 104.597656 171.179688 101.472656 170.597656 97.210938 C 169.960938 92.5625 168.265625 88.648438 167.257812 86.015625 C 165.859375 82.363281 163.003906 76.027344 161.886719 72.253906 C 160.308594 66.910156 159.816406 64.644531 161.597656 61.40625 C 162.59375 59.601562 164.824219 57.902344 167.332031 59.128906 C 168.980469 59.9375 168.617188 60.398438 168.460938 60.699219 C 166.417969 63.855469 165.597656 67.941406 166.449219 70.828125 C 167.640625 74.851562 171.445312 78.101562 173.109375 79.15625 C 173.109375 79.15625 175.945312 81 176.507812 80.574219 C 177.839844 79.566406 174.375 74.691406 174.503906 73.113281 C 174.585938 72.125 174.851562 71.226562 175.171875 70.1875 C 175.542969 69 176.265625 67.238281 176.46875 65.457031 C 177.113281 59.839844 173.785156 54.667969 168.359375 53.929688 C 166.914062 53.734375 161.164062 52.839844 157.132812 58.855469 C 156.382812 59.976562 155.257812 62.726562 155.386719 65.175781 C 153.410156 60.457031 151.011719 55.097656 148.367188 51.136719 C 147.796875 50.363281 144.820312 46.863281 144.007812 46.632812 C 140.6875 45.746094 134.15625 44.183594 132.359375 44.074219 C 132.355469 44.078125 137.898438 50.300781 137.898438 64.136719 Z M 137.898438 64.136719 "/>
</g>
</svg>
