<?xml version="1.0" encoding="UTF-8"?>
<svg xmlns="http://www.w3.org/2000/svg" xmlns:xlink="http://www.w3.org/1999/xlink" width="px" height="256px" viewBox="0 0 177 255" version="1.1">
<g id="surface1">
<path style=" stroke:none;fill-rule:nonzero;fill:rgb(89.019608%,9.803922%,21.568627%);fill-opacity:1;" d="M 0 0.0234375 L 177 0.0234375 L 177 254.976562 L 0 254.976562 Z M 0 0.0234375 "/>
<path style=" stroke:none;fill-rule:nonzero;fill:rgb(100%,100%,100%);fill-opacity:1;" d="M 136.4375 205.660156 L 136.4375 216.832031 L 140.035156 216.832031 L 140.035156 209.394531 L 153.121094 209.394531 L 153.121094 216.832031 L 156.714844 216.832031 L 156.714844 205.679688 L 136.4375 205.660156 M 139.632812 202.046875 L 153.460938 202.046875 C 155.382812 201.664062 156.8125 199.976562 157.214844 198.339844 L 135.882812 198.339844 C 136.28125 199.976562 137.730469 201.664062 139.632812 202.046875 M 125.546875 216.839844 C 127.359375 216.074219 128.335938 214.75 128.710938 213.199219 L 112.578125 213.199219 L 112.589844 198.351562 L 108.972656 198.363281 L 108.972656 216.839844 L 125.546875 216.839844 M 82.085938 201.996094 L 94.859375 201.996094 C 96.78125 201.4375 98.398438 199.976562 98.792969 198.355469 L 78.507812 198.355469 L 78.507812 209.277344 L 95.109375 209.277344 L 95.109375 213.109375 L 82.085938 213.117188 C 80.046875 213.6875 78.316406 215.050781 77.449219 216.855469 L 78.507812 216.835938 L 98.679688 216.835938 L 98.679688 205.644531 L 82.085938 205.644531 L 82.085938 201.996094 M 50.558594 202.03125 L 64.382812 202.03125 C 66.308594 201.648438 67.734375 199.960938 68.136719 198.324219 L 46.808594 198.324219 C 47.207031 199.960938 48.65625 201.648438 50.558594 202.03125 M 50.558594 209.332031 L 64.382812 209.332031 C 66.308594 208.957031 67.734375 207.265625 68.136719 205.628906 L 46.808594 205.628906 C 47.207031 207.265625 48.65625 208.957031 50.558594 209.332031 M 50.558594 216.835938 L 64.382812 216.835938 C 66.308594 216.457031 67.734375 214.769531 68.136719 213.132812 L 46.808594 213.132812 C 47.207031 214.769531 48.65625 216.457031 50.558594 216.835938 M 14.597656 198.371094 C 15.011719 199.984375 16.417969 201.636719 18.34375 202.050781 L 24.160156 202.050781 L 24.457031 202.167969 L 24.457031 216.796875 L 28.089844 216.796875 L 28.089844 202.167969 L 28.421875 202.050781 L 34.246094 202.050781 C 36.191406 201.550781 37.566406 199.984375 37.972656 198.371094 L 37.972656 198.335938 L 14.597656 198.335938 L 14.597656 198.371094 "/>
<path style=" stroke:none;fill-rule:nonzero;fill:rgb(100%,100%,100%);fill-opacity:1;" d="M 88.609375 161.816406 L 106.765625 60.078125 C 124.070312 60.078125 129.53125 61.96875 130.320312 69.6875 C 130.320312 69.6875 141.929688 65.375 147.78125 56.617188 C 124.933594 46.066406 101.976562 45.589844 101.976562 45.589844 L 88.582031 61.847656 L 88.609375 61.84375 L 75.214844 45.589844 C 75.214844 45.589844 52.257812 46.0625 29.410156 56.613281 C 35.261719 65.371094 46.875 69.6875 46.875 69.6875 C 47.667969 61.96875 53.121094 60.078125 70.308594 60.066406 L 88.609375 161.816406 "/>
<path style=" stroke:none;fill-rule:nonzero;fill:rgb(100%,100%,100%);fill-opacity:1;" d="M 88.605469 40.894531 C 107.074219 40.753906 128.214844 43.742188 149.855469 53.140625 C 152.75 47.953125 153.492188 45.660156 153.492188 45.660156 C 129.832031 36.335938 107.679688 33.144531 88.601562 33.0625 C 69.523438 33.144531 47.371094 36.335938 23.714844 45.660156 C 23.714844 45.660156 24.769531 48.484375 27.347656 53.140625 C 48.988281 43.742188 70.132812 40.753906 88.601562 40.894531 L 88.605469 40.894531 "/>
</g>
</svg>
