<?xml version="1.0" encoding="UTF-8"?>
<svg xmlns="http://www.w3.org/2000/svg" xmlns:xlink="http://www.w3.org/1999/xlink" width="px" height="256px" viewBox="0 0 310 256" version="1.1">
<defs>
<linearGradient id="linear0" gradientUnits="userSpaceOnUse" x1="-907.035" y1="1209.688" x2="-907.035" y2="1300.343" gradientTransform="matrix(1.093609,0,0,-1.094944,1143.838922,1482.512947)">
<stop offset="0" style="stop-color:rgb(94.117647%,95.294118%,96.078431%);stop-opacity:1;"/>
<stop offset="0.056" style="stop-color:rgb(88.627451%,89.803922%,90.980392%);stop-opacity:1;"/>
<stop offset="0.138" style="stop-color:rgb(83.137255%,84.705882%,86.666667%);stop-opacity:1;"/>
<stop offset="0.242" style="stop-color:rgb(80%,81.568627%,83.921569%);stop-opacity:1;"/>
<stop offset="0.44" style="stop-color:rgb(79.215686%,80.784314%,83.137255%);stop-opacity:1;"/>
<stop offset="0.568" style="stop-color:rgb(70.196078%,71.764706%,74.117647%);stop-opacity:1;"/>
<stop offset="0.835" style="stop-color:rgb(47.45098%,48.627451%,51.372549%);stop-opacity:1;"/>
<stop offset="1" style="stop-color:rgb(32.156863%,32.941176%,36.078431%);stop-opacity:1;"/>
</linearGradient>
<linearGradient id="linear1" gradientUnits="userSpaceOnUse" x1="-907.031" y1="1278.762" x2="-907.031" y2="1327.886" gradientTransform="matrix(1.093609,0,0,-1.094944,1143.838922,1482.512947)">
<stop offset="0" style="stop-color:rgb(94.117647%,95.294118%,96.078431%);stop-opacity:1;"/>
<stop offset="0.056" style="stop-color:rgb(88.627451%,89.803922%,90.980392%);stop-opacity:1;"/>
<stop offset="0.138" style="stop-color:rgb(83.137255%,84.705882%,86.666667%);stop-opacity:1;"/>
<stop offset="0.242" style="stop-color:rgb(80%,81.568627%,83.921569%);stop-opacity:1;"/>
<stop offset="0.44" style="stop-color:rgb(79.215686%,80.784314%,83.137255%);stop-opacity:1;"/>
<stop offset="0.568" style="stop-color:rgb(70.196078%,71.764706%,74.117647%);stop-opacity:1;"/>
<stop offset="0.835" style="stop-color:rgb(47.45098%,48.627451%,51.372549%);stop-opacity:1;"/>
<stop offset="1" style="stop-color:rgb(32.156863%,32.941176%,36.078431%);stop-opacity:1;"/>
</linearGradient>
<linearGradient id="linear2" gradientUnits="userSpaceOnUse" x1="-890.724" y1="1287.791" x2="-921.397" y2="1313.529" gradientTransform="matrix(1.093609,0,0,-1.094944,1143.838922,1482.512947)">
<stop offset="0" style="stop-color:rgb(94.117647%,95.294118%,96.078431%);stop-opacity:1;"/>
<stop offset="0.056" style="stop-color:rgb(88.627451%,89.803922%,90.980392%);stop-opacity:1;"/>
<stop offset="0.138" style="stop-color:rgb(83.137255%,84.705882%,86.666667%);stop-opacity:1;"/>
<stop offset="0.242" style="stop-color:rgb(80%,81.568627%,83.921569%);stop-opacity:1;"/>
<stop offset="0.44" style="stop-color:rgb(79.215686%,80.784314%,83.137255%);stop-opacity:1;"/>
<stop offset="0.568" style="stop-color:rgb(70.196078%,71.764706%,74.117647%);stop-opacity:1;"/>
<stop offset="0.835" style="stop-color:rgb(47.45098%,48.627451%,51.372549%);stop-opacity:1;"/>
<stop offset="1" style="stop-color:rgb(32.156863%,32.941176%,36.078431%);stop-opacity:1;"/>
</linearGradient>
<linearGradient id="linear3" gradientUnits="userSpaceOnUse" x1="-887.604" y1="1244.974" x2="-932.331" y2="1270.797" gradientTransform="matrix(1.093609,0,0,-1.094944,1143.838922,1482.512947)">
<stop offset="0" style="stop-color:rgb(94.117647%,95.294118%,96.078431%);stop-opacity:1;"/>
<stop offset="0.056" style="stop-color:rgb(88.627451%,89.803922%,90.980392%);stop-opacity:1;"/>
<stop offset="0.138" style="stop-color:rgb(83.137255%,84.705882%,86.666667%);stop-opacity:1;"/>
<stop offset="0.242" style="stop-color:rgb(80%,81.568627%,83.921569%);stop-opacity:1;"/>
<stop offset="0.44" style="stop-color:rgb(79.215686%,80.784314%,83.137255%);stop-opacity:1;"/>
<stop offset="0.568" style="stop-color:rgb(70.196078%,71.764706%,74.117647%);stop-opacity:1;"/>
<stop offset="0.835" style="stop-color:rgb(47.45098%,48.627451%,51.372549%);stop-opacity:1;"/>
<stop offset="1" style="stop-color:rgb(32.156863%,32.941176%,36.078431%);stop-opacity:1;"/>
</linearGradient>
<linearGradient id="linear4" gradientUnits="userSpaceOnUse" x1="-922.726" y1="1351.951" x2="-922.726" y2="1274.035" gradientTransform="matrix(1.093609,0,0,-1.094944,1143.838922,1482.512947)">
<stop offset="0" style="stop-color:rgb(94.117647%,95.294118%,96.078431%);stop-opacity:1;"/>
<stop offset="0.056" style="stop-color:rgb(88.627451%,89.803922%,90.980392%);stop-opacity:1;"/>
<stop offset="0.138" style="stop-color:rgb(83.137255%,84.705882%,86.666667%);stop-opacity:1;"/>
<stop offset="0.242" style="stop-color:rgb(80%,81.568627%,83.921569%);stop-opacity:1;"/>
<stop offset="0.44" style="stop-color:rgb(79.215686%,80.784314%,83.137255%);stop-opacity:1;"/>
<stop offset="0.568" style="stop-color:rgb(70.196078%,71.764706%,74.117647%);stop-opacity:1;"/>
<stop offset="0.835" style="stop-color:rgb(47.45098%,48.627451%,51.372549%);stop-opacity:1;"/>
<stop offset="1" style="stop-color:rgb(32.156863%,32.941176%,36.078431%);stop-opacity:1;"/>
</linearGradient>
<linearGradient id="linear5" gradientUnits="userSpaceOnUse" x1="-891.344" y1="1351.951" x2="-891.344" y2="1274.035" gradientTransform="matrix(1.093609,0,0,-1.094944,1143.838922,1482.512947)">
<stop offset="0" style="stop-color:rgb(94.117647%,95.294118%,96.078431%);stop-opacity:1;"/>
<stop offset="0.056" style="stop-color:rgb(88.627451%,89.803922%,90.980392%);stop-opacity:1;"/>
<stop offset="0.138" style="stop-color:rgb(83.137255%,84.705882%,86.666667%);stop-opacity:1;"/>
<stop offset="0.242" style="stop-color:rgb(80%,81.568627%,83.921569%);stop-opacity:1;"/>
<stop offset="0.44" style="stop-color:rgb(79.215686%,80.784314%,83.137255%);stop-opacity:1;"/>
<stop offset="0.568" style="stop-color:rgb(70.196078%,71.764706%,74.117647%);stop-opacity:1;"/>
<stop offset="0.835" style="stop-color:rgb(47.45098%,48.627451%,51.372549%);stop-opacity:1;"/>
<stop offset="1" style="stop-color:rgb(32.156863%,32.941176%,36.078431%);stop-opacity:1;"/>
</linearGradient>
<linearGradient id="linear6" gradientUnits="userSpaceOnUse" x1="-890.393" y1="1352.606" x2="-890.393" y2="1222.572" gradientTransform="matrix(1.093609,0,0,-1.094944,1143.838922,1482.512947)">
<stop offset="0" style="stop-color:rgb(94.117647%,95.294118%,96.078431%);stop-opacity:1;"/>
<stop offset="0.056" style="stop-color:rgb(88.627451%,89.803922%,90.980392%);stop-opacity:1;"/>
<stop offset="0.138" style="stop-color:rgb(83.137255%,84.705882%,86.666667%);stop-opacity:1;"/>
<stop offset="0.242" style="stop-color:rgb(80%,81.568627%,83.921569%);stop-opacity:1;"/>
<stop offset="0.44" style="stop-color:rgb(79.215686%,80.784314%,83.137255%);stop-opacity:1;"/>
<stop offset="0.568" style="stop-color:rgb(70.196078%,71.764706%,74.117647%);stop-opacity:1;"/>
<stop offset="0.835" style="stop-color:rgb(47.45098%,48.627451%,51.372549%);stop-opacity:1;"/>
<stop offset="1" style="stop-color:rgb(32.156863%,32.941176%,36.078431%);stop-opacity:1;"/>
</linearGradient>
<linearGradient id="linear7" gradientUnits="userSpaceOnUse" x1="-923.675" y1="1352.606" x2="-923.675" y2="1222.572" gradientTransform="matrix(1.093609,0,0,-1.094944,1143.838922,1482.512947)">
<stop offset="0" style="stop-color:rgb(94.117647%,95.294118%,96.078431%);stop-opacity:1;"/>
<stop offset="0.056" style="stop-color:rgb(88.627451%,89.803922%,90.980392%);stop-opacity:1;"/>
<stop offset="0.138" style="stop-color:rgb(83.137255%,84.705882%,86.666667%);stop-opacity:1;"/>
<stop offset="0.242" style="stop-color:rgb(80%,81.568627%,83.921569%);stop-opacity:1;"/>
<stop offset="0.44" style="stop-color:rgb(79.215686%,80.784314%,83.137255%);stop-opacity:1;"/>
<stop offset="0.568" style="stop-color:rgb(70.196078%,71.764706%,74.117647%);stop-opacity:1;"/>
<stop offset="0.835" style="stop-color:rgb(47.45098%,48.627451%,51.372549%);stop-opacity:1;"/>
<stop offset="1" style="stop-color:rgb(32.156863%,32.941176%,36.078431%);stop-opacity:1;"/>
</linearGradient>
<linearGradient id="linear8" gradientUnits="userSpaceOnUse" x1="-907.038" y1="1351.944" x2="-907.038" y2="1192.832" gradientTransform="matrix(1.093609,0,0,-1.094944,1143.838922,1482.512947)">
<stop offset="0" style="stop-color:rgb(94.117647%,95.294118%,96.078431%);stop-opacity:1;"/>
<stop offset="0.253" style="stop-color:rgb(92.941176%,94.117647%,95.294118%);stop-opacity:1;"/>
<stop offset="0.406" style="stop-color:rgb(89.803922%,90.980392%,91.764706%);stop-opacity:1;"/>
<stop offset="0.531" style="stop-color:rgb(84.313725%,85.490196%,86.27451%);stop-opacity:1;"/>
<stop offset="0.642" style="stop-color:rgb(76.470588%,77.254902%,78.823529%);stop-opacity:1;"/>
<stop offset="0.744" style="stop-color:rgb(66.27451%,67.058824%,68.627451%);stop-opacity:1;"/>
<stop offset="0.839" style="stop-color:rgb(53.333333%,54.509804%,56.470588%);stop-opacity:1;"/>
<stop offset="0.926" style="stop-color:rgb(38.823529%,39.607843%,41.960784%);stop-opacity:1;"/>
<stop offset="1" style="stop-color:rgb(23.921569%,24.705882%,27.45098%);stop-opacity:1;"/>
</linearGradient>
<linearGradient id="linear9" gradientUnits="userSpaceOnUse" x1="-907.03" y1="1351.952" x2="-907.03" y2="1192.83" gradientTransform="matrix(1.093609,0,0,-1.094944,1143.838922,1482.512947)">
<stop offset="0" style="stop-color:rgb(94.117647%,95.294118%,96.078431%);stop-opacity:1;"/>
<stop offset="0.253" style="stop-color:rgb(92.941176%,94.117647%,95.294118%);stop-opacity:1;"/>
<stop offset="0.406" style="stop-color:rgb(89.803922%,90.980392%,91.764706%);stop-opacity:1;"/>
<stop offset="0.531" style="stop-color:rgb(84.313725%,85.490196%,86.27451%);stop-opacity:1;"/>
<stop offset="0.642" style="stop-color:rgb(76.470588%,77.254902%,78.823529%);stop-opacity:1;"/>
<stop offset="0.744" style="stop-color:rgb(66.27451%,67.058824%,68.627451%);stop-opacity:1;"/>
<stop offset="0.839" style="stop-color:rgb(53.333333%,54.509804%,56.470588%);stop-opacity:1;"/>
<stop offset="0.926" style="stop-color:rgb(38.823529%,39.607843%,41.960784%);stop-opacity:1;"/>
<stop offset="1" style="stop-color:rgb(23.921569%,24.705882%,27.45098%);stop-opacity:1;"/>
</linearGradient>
<linearGradient id="linear10" gradientUnits="userSpaceOnUse" x1="-907.034" y1="1351.935" x2="-907.034" y2="1192.817" gradientTransform="matrix(1.093609,0,0,-1.094944,1143.838922,1482.512947)">
<stop offset="0" style="stop-color:rgb(94.117647%,95.294118%,96.078431%);stop-opacity:1;"/>
<stop offset="0.253" style="stop-color:rgb(92.941176%,94.117647%,95.294118%);stop-opacity:1;"/>
<stop offset="0.406" style="stop-color:rgb(89.803922%,90.980392%,91.764706%);stop-opacity:1;"/>
<stop offset="0.531" style="stop-color:rgb(84.313725%,85.490196%,86.27451%);stop-opacity:1;"/>
<stop offset="0.642" style="stop-color:rgb(76.470588%,77.254902%,78.823529%);stop-opacity:1;"/>
<stop offset="0.744" style="stop-color:rgb(66.27451%,67.058824%,68.627451%);stop-opacity:1;"/>
<stop offset="0.839" style="stop-color:rgb(53.333333%,54.509804%,56.470588%);stop-opacity:1;"/>
<stop offset="0.926" style="stop-color:rgb(38.823529%,39.607843%,41.960784%);stop-opacity:1;"/>
<stop offset="1" style="stop-color:rgb(23.921569%,24.705882%,27.45098%);stop-opacity:1;"/>
</linearGradient>
<linearGradient id="linear11" gradientUnits="userSpaceOnUse" x1="-907.033" y1="1318.944" x2="-907.033" y2="1273.596" gradientTransform="matrix(1.093609,0,0,-1.094944,1143.838922,1482.512947)">
<stop offset="0" style="stop-color:rgb(79.215686%,80.784314%,83.137255%);stop-opacity:1;"/>
<stop offset="1" style="stop-color:rgb(32.156863%,32.941176%,36.078431%);stop-opacity:1;"/>
</linearGradient>
</defs>
<g id="surface1">
<path style=" stroke:none;fill-rule:nonzero;fill:rgb(67.058824%,0%,18.431373%);fill-opacity:1;" d="M 154.632812 228.351562 C 154.585938 213.082031 166.875 200.765625 182.226562 200.738281 C 197.203125 200.761719 209.503906 213.082031 209.808594 228.351562 C 209.507812 243.449219 197.207031 255.769531 182.226562 255.980469 C 166.875 255.769531 154.585938 243.449219 154.632812 228.351562 Z M 182.230469 245.804688 C 190.515625 245.675781 197.378906 237.878906 197.464844 228.351562 C 197.378906 218.644531 190.515625 210.847656 182.230469 210.902344 C 173.582031 210.84375 166.707031 218.640625 166.980469 228.351562 C 166.707031 237.878906 173.582031 245.675781 182.230469 245.804688 M 241.023438 212.355469 L 241.023438 254.527344 L 229.414062 254.527344 L 229.414062 212.355469 L 212.710938 212.355469 L 212.710938 202.921875 L 257 202.921875 L 257 212.355469 L 241.023438 212.355469 M 270.78125 242.882812 L 266.4375 254.527344 L 252.652344 254.527344 L 274.425781 202.921875 L 288.9375 202.921875 L 310 254.527344 L 296.214844 254.527344 L 291.859375 242.882812 Z M 281.691406 234.167969 L 288.9375 234.167969 L 281.691406 215.261719 L 274.425781 234.167969 L 281.691406 234.167969 M 27.585938 212.355469 L 27.585938 254.527344 L 15.96875 254.527344 L 15.96875 212.355469 L 0 212.355469 L 0 202.921875 L 43.5625 202.921875 L 43.5625 212.355469 L 27.585938 212.355469 M 46.464844 228.351562 C 46.488281 213.082031 58.773438 200.765625 74.039062 200.738281 C 89.109375 200.761719 101.414062 213.082031 101.632812 228.351562 C 101.414062 243.449219 89.109375 255.769531 74.039062 255.980469 C 58.773438 255.769531 46.488281 243.449219 46.464844 228.351562 Z M 74.039062 245.804688 C 82.425781 245.675781 89.28125 237.878906 89.289062 228.351562 C 89.28125 218.644531 82.425781 210.847656 74.039062 210.902344 C 65.480469 210.84375 58.609375 218.640625 58.8125 228.351562 C 58.609375 237.878906 65.480469 245.675781 74.039062 245.804688 M 127.769531 254.527344 L 133.574219 254.527344 L 133.574219 234.894531 L 153.90625 202.921875 L 140.84375 202.921875 L 127.769531 224.71875 L 115.425781 202.921875 L 101.636719 202.921875 L 121.96875 234.894531 L 121.96875 254.527344 L 127.769531 254.527344 "/>
<path style=" stroke:none;fill-rule:nonzero;fill:rgb(0%,0%,0%);fill-opacity:1;" d="M 9.347656 89.320312 C 9.347656 138.5625 73.296875 178.628906 151.898438 178.628906 C 230.5 178.628906 294.449219 138.5625 294.449219 89.320312 C 294.449219 40.074219 230.5 0.015625 151.898438 0.015625 C 73.296875 0.015625 9.347656 40.074219 9.347656 89.320312 Z M 13.722656 89.320312 C 13.722656 42.5 75.707031 4.40625 151.898438 4.40625 C 228.089844 4.40625 290.078125 42.5 290.078125 89.320312 C 290.078125 136.152344 228.089844 174.246094 151.898438 174.246094 C 75.707031 174.246094 13.722656 136.15625 13.722656 89.320312 Z M 13.722656 89.320312 "/>
<path style=" stroke:none;fill-rule:nonzero;fill:rgb(0%,0%,0%);fill-opacity:1;" d="M 138.429688 16.25 C 105.066406 18.292969 80.832031 27.144531 76.703125 38.808594 C 76.28125 39.984375 76.0625 41.222656 76.058594 42.472656 C 76.058594 44.441406 76.617188 46.40625 77.71875 48.289062 C 82.347656 56.1875 96.722656 62.703125 117.175781 66.195312 L 119.339844 66.550781 L 119.703125 64.382812 C 123.0625 43.878906 130.429688 27.753906 139.933594 20.140625 L 145.3125 15.824219 Z M 81.496094 46.082031 C 80.78125 44.867188 80.429688 43.667969 80.429688 42.488281 C 80.429688 41.742188 80.558594 41.015625 80.824219 40.277344 C 83.976562 31.363281 105.394531 23.582031 132.753906 21.070312 C 124.949219 29.910156 118.949219 44.15625 115.816406 61.460938 C 98.039062 58.167969 85.253906 52.496094 81.496094 46.082031 Z M 76.703125 38.808594 Z M 132.328125 65.695312 L 131.902344 68.078125 L 134.316406 68.261719 C 140.039062 68.691406 145.957031 68.921875 151.894531 68.921875 C 157.835938 68.921875 163.757812 68.691406 169.480469 68.261719 L 171.890625 68.078125 L 171.460938 65.695312 C 168.171875 47.191406 160.851562 36.140625 151.898438 36.140625 C 142.9375 36.140625 135.617188 47.191406 132.328125 65.695312 Z M 151.898438 40.519531 C 158.019531 40.519531 163.671875 49.699219 166.648438 64.027344 C 161.808594 64.34375 156.878906 64.539062 151.894531 64.539062 C 146.917969 64.539062 141.984375 64.34375 137.148438 64.027344 C 140.117188 49.699219 145.777344 40.519531 151.898438 40.519531 Z M 163.859375 20.144531 C 173.355469 27.757812 180.734375 43.882812 184.089844 64.386719 L 184.449219 66.550781 L 186.613281 66.199219 C 207.074219 62.703125 221.457031 56.1875 226.070312 48.289062 C 227.863281 45.253906 228.207031 41.976562 227.09375 38.8125 C 222.964844 27.148438 198.730469 18.296875 165.371094 16.253906 L 158.492188 15.824219 Z M 171.050781 21.070312 C 198.402344 23.582031 219.820312 31.378906 222.964844 40.277344 C 223.238281 41.015625 223.367188 41.742188 223.367188 42.488281 C 223.367188 43.667969 223.007812 44.867188 222.308594 46.082031 C 218.539062 52.496094 205.75 58.167969 187.976562 61.460938 C 184.847656 44.15625 178.855469 29.914062 171.050781 21.070312 Z M 55.589844 47.40625 C 40.597656 59.980469 32.671875 74.921875 32.671875 90.617188 C 32.671875 127.539062 77.640625 158.75 137.269531 163.199219 L 143.929688 163.699219 L 138.855469 159.363281 C 125.792969 148.171875 117.679688 121.625 117.679688 90.074219 L 117.816406 82.621094 L 115.988281 82.246094 C 84.625 76.621094 62.3125 63.414062 59.136719 48.628906 L 58.375 45.078125 Z M 37.050781 90.617188 C 37.050781 77.15625 43.609375 64.242188 55.917969 53.023438 C 61.65625 67.960938 83.089844 80.410156 113.382812 86.199219 C 113.34375 87.910156 113.3125 90.074219 113.3125 90.074219 C 113.3125 119.328125 120.246094 144.59375 131.679688 158.222656 C 77.351562 152.421875 37.050781 124.007812 37.050781 90.617188 Z M 130.546875 86.671875 L 130.535156 87.464844 C 130.535156 116.792969 139.71875 138.917969 151.898438 138.917969 C 164.074219 138.917969 173.257812 116.792969 173.257812 87.464844 L 173.230469 84.300781 L 170.878906 84.503906 C 164.6875 85.046875 158.308594 85.316406 151.898438 85.316406 C 145.492188 85.316406 139.105469 85.046875 132.929688 84.503906 L 130.570312 84.289062 Z M 168.859375 89.023438 C 168.527344 116.308594 159.941406 134.542969 151.898438 134.542969 C 143.847656 134.542969 135.257812 116.308594 134.9375 89.023438 C 140.5 89.433594 146.183594 89.6875 151.898438 89.6875 C 157.621094 89.6875 163.289062 89.433594 168.859375 89.023438 Z M 244.652344 48.628906 C 241.480469 63.414062 219.160156 76.617188 187.808594 82.246094 L 185.96875 82.589844 L 186.117188 90.074219 C 186.117188 121.625 178 148.171875 164.941406 159.359375 L 159.871094 163.699219 L 166.519531 163.199219 C 226.152344 158.75 271.125 127.539062 271.125 90.617188 C 271.125 74.917969 263.191406 59.980469 248.195312 47.40625 L 245.417969 45.078125 Z M 247.867188 53.023438 C 260.1875 64.242188 266.75 77.15625 266.75 90.617188 C 266.75 124.007812 226.453125 152.421875 172.117188 158.222656 C 183.554688 144.59375 190.488281 119.328125 190.488281 90.074219 C 190.488281 90.074219 190.445312 87.910156 190.414062 86.199219 C 220.699219 80.410156 242.132812 67.960938 247.867188 53.023438 Z M 247.867188 53.023438 "/>
<path style=" stroke:none;fill-rule:nonzero;fill:url(#linear0);" d="M 246.203125 37.355469 C 246.40625 37.910156 246.589844 38.480469 246.734375 39.050781 C 247.558594 42.328125 247.386719 45.550781 246.316406 48.691406 C 260.542969 60.4375 268.929688 74.921875 268.929688 90.617188 C 268.929688 129.796875 216.53125 161.5625 151.898438 161.5625 C 87.261719 161.5625 34.867188 129.796875 34.867188 90.617188 C 34.867188 74.933594 43.261719 60.4375 57.46875 48.691406 C 56.410156 45.550781 56.238281 42.328125 57.0625 39.050781 C 57.234375 38.425781 57.460938 37.820312 57.742188 37.242188 C 38.332031 51.085938 26.5625 69.234375 26.5625 89.109375 C 26.5625 132.503906 82.671875 167.679688 151.898438 167.679688 C 221.113281 167.679688 277.230469 132.503906 277.230469 89.109375 C 277.234375 69.277344 265.511719 51.171875 246.203125 37.355469 Z M 246.203125 37.355469 "/>
<path style=" stroke:none;fill-rule:nonzero;fill:url(#linear1);" d="M 169.308594 66.082031 C 163.785156 66.496094 157.964844 66.722656 151.894531 66.722656 C 145.828125 66.722656 140.007812 66.496094 134.484375 66.082031 L 134.46875 66.082031 L 130.859375 68.707031 C 137.519531 69.289062 144.550781 69.617188 151.898438 69.617188 C 159.242188 69.617188 166.277344 69.289062 172.941406 68.707031 Z M 233.332031 38.550781 C 228.933594 23.992188 192.664062 13.300781 151.898438 13.300781 C 111.140625 13.300781 74.871094 23.996094 70.472656 38.550781 C 66.652344 51.183594 87.5 62.871094 120.390625 67.507812 L 117.53125 64.023438 C 90.925781 59.492188 75.113281 49.824219 78.761719 39.546875 C 83.183594 27.070312 115.296875 18.035156 151.894531 18.035156 C 188.492188 18.035156 220.613281 27.074219 225.03125 39.546875 C 228.675781 49.828125 212.867188 59.492188 186.257812 64.023438 L 183.410156 67.507812 C 216.285156 62.871094 237.148438 51.183594 233.332031 38.550781 Z M 233.332031 38.550781 "/>
<path style=" stroke:none;fill-rule:nonzero;fill:url(#linear2);" d="M 134.527344 66.082031 C 137.582031 49.085938 144.210938 38.46875 151.894531 38.46875 C 159.589844 38.46875 166.207031 49.085938 169.269531 66.082031 L 169.328125 66.082031 L 172.902344 68.675781 C 169.886719 46.234375 161.625 31.894531 151.898438 31.894531 C 142.167969 31.894531 133.910156 46.234375 130.898438 68.675781 L 134.472656 66.082031 Z M 134.527344 66.082031 "/>
<path style=" stroke:none;fill-rule:nonzero;fill:url(#linear3);" d="M 173.984375 81.390625 L 171.0625 86.683594 C 171.0625 87.066406 171.078125 87.464844 171.078125 87.867188 C 171.078125 116.035156 162.476562 137.394531 151.894531 137.394531 C 141.304688 137.394531 132.71875 116.03125 132.71875 87.867188 C 132.71875 87.421875 132.726562 86.980469 132.738281 86.554688 L 129.808594 81.390625 C 129.722656 83.539062 129.679688 85.6875 129.683594 87.835938 C 129.683594 119.773438 139.628906 143.964844 151.898438 143.964844 C 164.171875 143.964844 174.125 119.773438 174.125 87.835938 C 174.121094 85.6875 174.074219 83.539062 173.984375 81.390625 Z M 173.984375 81.390625 "/>
<path style=" stroke:none;fill-rule:nonzero;fill:url(#linear4);" d="M 120.4375 67.519531 C 124.640625 36.328125 137.136719 13.296875 151.898438 13.296875 C 136.070312 13.296875 122.582031 33.703125 117.574219 64.085938 L 120.394531 67.519531 Z M 120.4375 67.519531 "/>
<path style=" stroke:none;fill-rule:nonzero;fill:url(#linear5);" d="M 183.367188 67.519531 L 183.394531 67.519531 L 186.214844 64.085938 C 181.214844 33.703125 167.71875 13.296875 151.898438 13.296875 C 166.660156 13.300781 179.167969 36.328125 183.367188 67.519531 Z M 183.367188 67.519531 "/>
<path style=" stroke:none;fill-rule:nonzero;fill:url(#linear6);" d="M 188.179688 84.386719 L 184.589844 80.09375 L 184.5625 80.09375 C 184.761719 83.503906 184.878906 86.96875 184.878906 90.488281 C 184.878906 133.117188 170.109375 167.675781 151.898438 167.675781 C 172.316406 167.675781 188.296875 135.625 188.296875 90.488281 C 188.296875 88.421875 188.253906 86.398438 188.179688 84.386719 Z M 188.179688 84.386719 "/>
<path style=" stroke:none;fill-rule:nonzero;fill:url(#linear7);" d="M 118.929688 90.488281 C 118.929688 86.96875 119.042969 83.503906 119.238281 80.097656 L 119.214844 80.097656 L 115.617188 84.375 C 115.542969 86.410156 115.503906 88.449219 115.5 90.488281 C 115.5 135.625 131.488281 167.675781 151.898438 167.675781 C 133.695312 167.675781 118.929688 133.117188 118.929688 90.488281 Z M 118.929688 90.488281 "/>
<path style=" stroke:none;fill-rule:nonzero;fill:rgb(17.647059%,18.431373%,20.392157%);fill-opacity:1;" d="M 246.316406 48.6875 C 251.757812 53.179688 256.34375 58.082031 259.933594 63.289062 C 258.691406 55.007812 255.402344 47.171875 250.363281 40.492188 C 249.003906 39.410156 247.617188 38.363281 246.199219 37.355469 C 246.402344 37.914062 246.585938 38.480469 246.730469 39.050781 C 247.558594 42.328125 247.386719 45.550781 246.316406 48.6875 Z M 57.46875 48.6875 C 56.410156 45.550781 56.238281 42.328125 57.066406 39.046875 C 57.234375 38.425781 57.460938 37.820312 57.742188 37.238281 C 56.285156 38.292969 54.847656 39.378906 53.433594 40.492188 C 48.402344 47.175781 45.113281 55.011719 43.863281 63.289062 C 47.453125 58.082031 52.03125 53.179688 57.46875 48.6875 Z M 57.46875 48.6875 "/>
<path style=" stroke:none;fill-rule:nonzero;fill:url(#linear8);" d="M 11.535156 89.320312 C 11.535156 41.214844 74.375 2.210938 151.898438 2.210938 C 229.414062 2.210938 292.253906 41.214844 292.253906 89.320312 C 292.253906 137.4375 229.414062 176.429688 151.898438 176.429688 C 74.375 176.425781 11.535156 137.4375 11.535156 89.320312 Z M 151.898438 167.675781 C 221.113281 167.675781 277.234375 132.5 277.234375 89.105469 C 277.234375 45.707031 221.113281 10.519531 151.898438 10.519531 C 82.671875 10.519531 26.558594 45.710938 26.558594 89.105469 C 26.558594 132.5 82.671875 167.675781 151.898438 167.675781 Z M 151.898438 167.675781 "/>
<path style=" stroke:none;fill-rule:nonzero;fill:url(#linear9);" d="M 118.929688 90.488281 C 118.929688 48.304688 133.695312 13.300781 151.898438 13.300781 C 170.109375 13.300781 184.878906 48.304688 184.878906 90.488281 C 184.878906 133.121094 170.109375 167.675781 151.898438 167.675781 C 133.6875 167.675781 118.929688 133.117188 118.929688 90.488281 Z M 151.898438 143.964844 C 164.171875 143.964844 174.125 119.773438 174.125 87.851562 C 174.125 54.71875 164.171875 31.894531 151.898438 31.894531 C 139.625 31.894531 129.679688 54.71875 129.679688 87.851562 C 129.679688 119.773438 139.625 143.964844 151.898438 143.964844 Z M 151.898438 143.964844 "/>
<path style=" stroke:none;fill-rule:nonzero;fill:url(#linear10);" d="M 57.066406 39.046875 C 60.683594 24.707031 104.433594 3.835938 151.898438 3.835938 C 199.359375 3.835938 241.605469 18.75 246.734375 39.046875 C 252.46875 61.800781 210.304688 82.394531 151.898438 82.394531 C 93.480469 82.394531 51.320312 61.800781 57.066406 39.046875 Z M 151.898438 13.300781 C 111.140625 13.300781 74.871094 23.996094 70.472656 38.550781 C 65.542969 54.863281 101.742188 69.617188 151.898438 69.617188 C 202.0625 69.617188 238.257812 54.859375 233.332031 38.550781 C 228.933594 23.992188 192.664062 13.300781 151.898438 13.300781 Z M 151.898438 13.300781 "/>
<path style=" stroke:none;fill-rule:nonzero;fill:url(#linear11);" d="M 129.765625 81.347656 L 129.789062 81.367188 L 132.800781 86.683594 C 138.933594 87.207031 145.308594 87.507812 151.898438 87.507812 C 158.519531 87.507812 164.910156 87.207031 171.078125 86.667969 L 174.011719 81.363281 L 174.027344 81.347656 C 166.980469 82.019531 159.589844 82.390625 151.898438 82.390625 C 144.507812 82.394531 137.125 82.046875 129.765625 81.347656 Z M 247.226562 43.96875 C 246.476562 60.238281 221.5 74.652344 184.578125 80.082031 L 184.589844 80.09375 L 188.191406 84.402344 C 224.316406 77.902344 248.082031 61.929688 247.226562 43.96875 Z M 56.570312 43.96875 C 55.714844 61.949219 79.476562 77.902344 115.597656 84.402344 L 119.207031 80.09375 L 119.214844 80.082031 C 82.289062 74.652344 57.328125 60.238281 56.570312 43.96875 Z M 56.570312 43.96875 "/>
</g>
</svg>
