<?xml version="1.0" encoding="UTF-8"?>
<svg xmlns="http://www.w3.org/2000/svg" xmlns:xlink="http://www.w3.org/1999/xlink" width="px" height="256px" viewBox="0 0 256 256" version="1.1">
<g id="surface1">
<rect x="0" y="0" width="256" height="256" style="fill:rgb(100%,100%,100%);fill-opacity:1;stroke:none;"/>
<path style=" stroke:none;fill-rule:evenodd;fill:rgb(16.078431%,36.078431%,65.490196%);fill-opacity:1;" d="M 128.042969 21.59375 C 186.632812 21.59375 234.40625 69.371094 234.40625 128.042969 C 234.40625 186.542969 186.632812 234.410156 128.042969 234.410156 C 69.457031 234.410156 21.59375 186.542969 21.59375 128.042969 C 21.589844 69.367188 69.457031 21.59375 128.042969 21.59375 Z M 128.042969 21.59375 "/>
<path style=" stroke:none;fill-rule:evenodd;fill:rgb(100%,100%,100%);fill-opacity:1;" d="M 128.042969 35.105469 C 179.132812 35.105469 220.898438 76.867188 220.898438 128.046875 C 220.898438 179.136719 179.132812 220.808594 128.042969 220.808594 C 76.953125 220.808594 35.195312 179.132812 35.195312 128.042969 C 35.195312 76.867188 76.953125 35.105469 128.042969 35.105469 Z M 65.878906 78.085938 L 99.183594 164.488281 L 111.390625 132.925781 L 143.386719 132.925781 L 155.589844 164.488281 L 189.246094 77.039062 C 183.308594 69.875 176.167969 63.800781 168.144531 59.082031 L 144.78125 123.421875 L 111.824219 123.421875 L 88.375 58.820312 C 79.742188 63.789062 72.160156 70.328125 65.878906 78.085938 Z M 202.675781 99.796875 L 164.746094 198.75 C 190.207031 185.410156 207.730469 158.734375 207.730469 128.046875 C 207.730469 118.105469 205.984375 108.601562 202.675781 99.796875 Z M 148.183594 205.203125 L 147.921875 203.195312 L 127.34375 149.839844 L 106.769531 203.195312 L 106.683594 204.851562 C 113.484375 206.769531 120.632812 207.730469 128.042969 207.730469 C 135.019531 207.730469 141.730469 206.859375 148.183594 205.203125 Z M 89.769531 197.878906 L 52.804688 101.539062 C 49.839844 109.820312 48.269531 118.714844 48.269531 128.042969 C 48.269531 158.035156 65.007812 184.363281 89.769531 197.878906 Z M 128.042969 48.269531 C 135.019531 48.269531 141.90625 49.140625 148.445312 50.886719 L 128.304688 106.597656 L 108.078125 50.796875 C 114.597656 49.113281 121.308594 48.261719 128.042969 48.269531 Z M 128.042969 48.269531 "/>
</g>
</svg>
